<svg width="64" height="64" viewBox="0 0 64 64" fill="none" xmlns="http://www.w3.org/2000/svg">
<path d="M56.3222 40.4645C56.3222 41.9901 54.2713 44.4227 52.0744 44.4227C49.8775 44.4227 34.2623 44.4227 32.1384 44.4227C30.0144 44.4227 21.3256 54.608 21.3256 54.608V44.4227C21.3256 44.4227 15.97 44.5071 15.1952 44.4227C13.6877 44.2586 11.2378 41.9932 11.0438 40.4645C10.9452 39.6874 11.0438 19.1956 11.0438 16.9564C11.0438 14.7172 12.9961 12.5637 15.1952 12.5637C17.3942 12.5637 37.9309 12.5637 37.9309 12.5637" stroke="white" stroke-width="1.5382" stroke-linecap="round" stroke-linejoin="round"/>
<path d="M54.4143 34.4423C54.408 34.4718 54.4034 34.5016 54.4006 34.5317C54.3826 34.7257 54.2856 35.0623 54.061 35.342C53.857 35.5961 53.5353 35.8233 52.9835 35.8484C51.4356 35.9187 42.4917 35.8776 38.1754 35.8477C37.8363 35.8358 36.8224 35.5976 35.9767 34.6763V22.1403C36.9493 21.9945 38.1615 21.6363 39.2889 20.9517C40.7407 20.07 42.0743 18.629 42.5222 16.4086C42.5453 16.2938 42.555 16.1794 42.555 16.0729V16.0577V16.0425V16.0273V16.0121V15.997V15.9819V15.9668V15.9518V15.9367V15.9217V15.9067V15.8917V15.8768V15.8618V15.8469V15.832V15.8172V15.8023V15.7875V15.7727V15.7579V15.7432V15.7284V15.7137V15.699V15.6843V15.6697V15.6551V15.6405V15.6259V15.6113V15.5968V15.5823V15.5678V15.5533V15.5388V15.5244V15.51V15.4956V15.4812V15.4669V15.4526V15.4383V15.424V15.4097V15.3955V15.3813V15.3671V15.3529V15.3388V15.3246V15.3105V15.2964V15.2824V15.2683V15.2543V15.2403V15.2263V15.2124V15.1984V15.1845V15.1706V15.1568V15.1429V15.1291V15.1153V15.1015V15.0877V15.074V15.0603V15.0466V15.0329V15.0192V15.0056V14.992V14.9784V14.9648V14.9513V14.9377V14.9242V14.9107V14.8973V14.8838V14.8704V14.857V14.8436V14.8302V14.8169V14.8036V14.7903V14.777V14.7637V14.7505V14.7373V14.7241V14.7109V14.6978V14.6846V14.6715V14.6584V14.6454V14.6323V14.6193V14.6063V14.5933V14.5804V14.5674V14.5545V14.5416V14.5287V14.5158V14.503V14.4902V14.4774V14.4646V14.4519V14.4391V14.4264V14.4137V14.4011V14.3884V14.3758V14.3632V14.3506V14.338V14.3255V14.3129V14.3004V14.2879V14.2755V14.263V14.2506V14.2382V14.2258V14.2135V14.2011V14.1888V14.1765V14.1642V14.152V14.1397V14.1275V14.1153V14.1031V14.091V14.0788V14.0667V14.0546V14.0426V14.0305V14.0185V14.0065V13.9945V13.9825V13.9705V13.9586V13.9467V13.9348V13.9229V13.9111V13.8993V13.8874V13.8757V13.8639V13.8521V13.8404V13.8287V13.817V13.8053V13.7937V13.7821V13.7705V13.7589V13.7473V13.7358V13.7242V13.7127V13.7012V13.6898V13.6783V13.6669V13.6555V13.6441V13.6327V13.6214V13.6101V13.5988V13.5875V13.5762V13.565V13.5537V13.5425V13.5313V13.5202V13.509V13.4979V13.4868V13.4757V13.4646V13.4536V13.4426V13.4315V13.4206V13.4096V13.3986V13.3877V13.3768V13.3659V13.355V13.3442V13.3334V13.3226V13.3118V13.301V13.2902V13.2795V13.2688V13.2581V13.2474V13.2368V13.2262V13.2155V13.2049V13.1944V13.1838V13.1733V13.1628V13.1523V13.1418V13.1313V13.1209V13.1105V13.1001V13.0897V13.0793V13.069V13.0587V13.0484V13.0381V13.0278V13.0176V13.0074V12.9972V12.987V12.9768V12.9667V12.9565V12.9464V12.9364V12.9263V12.9162V12.9062V12.8962V12.8862V12.8762V12.8663V12.8563V12.8464V12.8365V12.8267V12.8168V12.807V12.7971V12.7873V12.7776V12.7678V12.7581V12.7483V12.7386V12.7289V12.7193V12.7096V12.7V12.6904V12.6808V12.6712V12.6617V12.6522V12.6426V12.6331V12.6237V12.6142V12.6048V12.5954V12.586V12.5766V12.5672V12.5579V12.5485V12.5392V12.53V12.5207V12.5114V12.5022V12.493V12.4838V12.4746V12.4655V12.4563V12.4472V12.4381V12.429V12.42V12.4109V12.4019V12.3929V12.3839V12.375V12.366V12.3571V12.3482V12.3393V12.3304V12.3215V12.3127V12.3039V12.2951V12.2863V12.2775V12.2688V12.2601V12.2514V12.2427V12.234V12.2254V12.2167V12.2081V12.1995V12.1909V12.1824V12.1738V12.1653V12.1568V12.1483V12.1398V12.1314V12.123V12.1146V12.1062V12.0978V12.0894V12.0811V12.0728V12.0645V12.0562V12.0479V12.0397V12.0314V12.0232V12.015V12.0068V11.9987V11.9906V11.9824V11.9743V11.9662V11.9582V11.9501V11.9421V11.9341V11.9261V11.9181V11.9102V11.9022V11.8943V11.8864V11.8785V11.8706V11.8628V11.855V11.8471V11.8393V11.8316V11.8238V11.8161V11.8083V11.8006V11.7929V11.7853V11.7776V11.77V11.7624V11.7548V11.7472V11.7396V11.7321V11.7245V11.717V11.7095V11.7021V11.6946V11.6872V11.6798V11.6723V11.665V11.6576V11.6502V11.6429V11.6356V11.6283V11.621V11.6138V11.6065V11.5993V11.5921V11.5849V11.5777V11.5705V11.5634V11.5563V11.5492V11.5421V11.535V11.528V11.5209V11.5139V11.5069V11.4999V11.493V11.486V11.4791V11.4722V11.4653V11.4584V11.4516V11.4447V11.4379V11.4311V11.4243V11.4175V11.4108V11.404V11.3973V11.3906V11.3839V11.3772V11.3706V11.3639V11.3573V11.3507V11.3441V11.3376V11.331V11.3245V11.318V11.3115V11.305V11.2985V11.2921V11.2857V11.2792V11.2728V11.2665V11.2601V11.2538V11.2474V11.2411V11.2348V11.2286V11.2223V11.2161V11.2098V11.2036V11.1974V11.1913V11.1851V11.179V11.1728V11.1667V11.1606V11.1546V11.1485V11.1425V11.1364V11.1304V11.1244V11.1185V11.1125V11.1066V11.1007V11.0948V11.0889V11.083V11.0771V11.0713V11.0655V11.0597V11.0539V11.0481V11.0424V11.0366V11.0309V11.0252V11.0195V11.0138V11.0082V11.0025V10.9969V10.9913V10.9857V10.9801V10.9746V10.969V10.9635V10.958V10.9525V10.9471V10.9416V10.9362V10.9307V10.9253V10.9199C42.555 10.8613 42.5773 10.8178 42.5994 10.7944C42.6098 10.7833 42.6188 10.778 42.6247 10.7754C42.6297 10.7733 42.6369 10.771 42.6498 10.7714C43.3996 10.7911 44.2227 10.9401 44.8488 11.2882C45.4384 11.6159 45.8423 12.1055 45.8964 12.9059C46.0289 14.8658 46.0035 16.8906 45.9512 18.2123C45.9118 19.2064 46.7 20.0673 47.7211 20.0673H54.3977C54.4868 20.0673 54.5942 20.0573 54.6358 20.0534C54.643 20.0527 54.6482 20.0522 54.651 20.052C54.7809 20.0419 55.4296 20.1047 56.1197 21.0156C56.1129 21.0067 56.113 21.0069 56.1174 21.0199C56.1285 21.0522 56.1667 21.1633 56.195 21.4098C56.23 21.7151 56.2396 22.1253 56.2227 22.63C56.1891 23.6362 56.0533 24.9324 55.8589 26.3432C55.4707 29.1599 54.8593 32.3579 54.4143 34.4423ZM34.2231 36.8935C34.7314 36.8935 35.1892 36.6773 35.5094 36.3317C36.5106 37.1124 37.5691 37.3701 38.1404 37.3855L38.1558 37.3858C42.4351 37.4155 51.4518 37.4578 53.0533 37.385C54.0767 37.3385 54.7992 36.8795 55.2605 36.305C55.6852 35.7759 55.8766 35.1674 55.9271 34.7235C56.3763 32.6154 56.9903 29.401 57.3827 26.5532C57.5799 25.1227 57.7238 23.7658 57.7601 22.6814C57.7782 22.1409 57.7704 21.6465 57.7232 21.2347C57.6806 20.8632 57.593 20.4131 57.3457 20.0868C56.3833 18.8163 55.2523 18.4624 54.5317 18.5185C54.4797 18.5225 54.4526 18.5251 54.4357 18.5267C54.4169 18.5285 54.4109 18.529 54.3977 18.529H47.7211C47.5995 18.529 47.4823 18.4208 47.4882 18.2731C47.5418 16.9189 47.5685 14.8354 47.4311 12.8022C47.3359 11.3934 46.5585 10.4787 45.5962 9.94374C44.6706 9.42914 43.5715 9.25694 42.6904 9.23372C41.6916 9.2074 41.0168 10.0491 41.0168 10.9199V10.9253V10.9307V10.9362V10.9416V10.9471V10.9525V10.958V10.9635V10.969V10.9746V10.9801V10.9857V10.9913V10.9969V11.0025V11.0082V11.0138V11.0195V11.0252V11.0309V11.0366V11.0424V11.0481V11.0539V11.0597V11.0655V11.0713V11.0771V11.083V11.0889V11.0948V11.1007V11.1066V11.1125V11.1185V11.1244V11.1304V11.1364V11.1425V11.1485V11.1546V11.1606V11.1667V11.1728V11.179V11.1851V11.1913V11.1974V11.2036V11.2098V11.2161V11.2223V11.2286V11.2348V11.2411V11.2474V11.2538V11.2601V11.2665V11.2728V11.2792V11.2857V11.2921V11.2985V11.305V11.3115V11.318V11.3245V11.331V11.3376V11.3441V11.3507V11.3573V11.3639V11.3706V11.3772V11.3839V11.3906V11.3973V11.404V11.4108V11.4175V11.4243V11.4311V11.4379V11.4447V11.4516V11.4584V11.4653V11.4722V11.4791V11.486V11.493V11.4999V11.5069V11.5139V11.5209V11.528V11.535V11.5421V11.5492V11.5563V11.5634V11.5705V11.5777V11.5849V11.5921V11.5993V11.6065V11.6138V11.621V11.6283V11.6356V11.6429V11.6502V11.6576V11.665V11.6723V11.6798V11.6872V11.6946V11.7021V11.7095V11.717V11.7245V11.7321V11.7396V11.7472V11.7548V11.7624V11.77V11.7776V11.7853V11.7929V11.8006V11.8083V11.8161V11.8238V11.8316V11.8393V11.8471V11.855V11.8628V11.8706V11.8785V11.8864V11.8943V11.9022V11.9102V11.9181V11.9261V11.9341V11.9421V11.9501V11.9582V11.9662V11.9743V11.9824V11.9906V11.9987V12.0068V12.015V12.0232V12.0314V12.0397V12.0479V12.0562V12.0645V12.0728V12.0811V12.0894V12.0978V12.1062V12.1146V12.123V12.1314V12.1398V12.1483V12.1568V12.1653V12.1738V12.1824V12.1909V12.1995V12.2081V12.2167V12.2254V12.234V12.2427V12.2514V12.2601V12.2688V12.2775V12.2863V12.2951V12.3039V12.3127V12.3215V12.3304V12.3393V12.3482V12.3571V12.366V12.375V12.3839V12.3929V12.4019V12.4109V12.42V12.429V12.4381V12.4472V12.4563V12.4655V12.4746V12.4838V12.493V12.5022V12.5114V12.5207V12.53V12.5392V12.5485V12.5579V12.5672V12.5766V12.586V12.5954V12.6048V12.6142V12.6237V12.6331V12.6426V12.6522V12.6617V12.6712V12.6808V12.6904V12.7V12.7096V12.7193V12.7289V12.7386V12.7483V12.7581V12.7678V12.7776V12.7873V12.7971V12.807V12.8168V12.8267V12.8365V12.8464V12.8563V12.8663V12.8762V12.8862V12.8962V12.9062V12.9162V12.9263V12.9364V12.9464V12.9565V12.9667V12.9768V12.987V12.9972V13.0074V13.0176V13.0278V13.0381V13.0484V13.0587V13.069V13.0793V13.0897V13.1001V13.1105V13.1209V13.1313V13.1418V13.1523V13.1628V13.1733V13.1838V13.1944V13.2049V13.2155V13.2262V13.2368V13.2474V13.2581V13.2688V13.2795V13.2902V13.301V13.3118V13.3226V13.3334V13.3442V13.355V13.3659V13.3768V13.3877V13.3986V13.4096V13.4206V13.4315V13.4426V13.4536V13.4646V13.4757V13.4868V13.4979V13.509V13.5202V13.5313V13.5425V13.5537V13.565V13.5762V13.5875V13.5988V13.6101V13.6214V13.6327V13.6441V13.6555V13.6669V13.6783V13.6898V13.7012V13.7127V13.7242V13.7358V13.7473V13.7589V13.7705V13.7821V13.7937V13.8053V13.817V13.8287V13.8404V13.8521V13.8639V13.8757V13.8874V13.8993V13.9111V13.9229V13.9348V13.9467V13.9586V13.9705V13.9825V13.9945V14.0065V14.0185V14.0305V14.0426V14.0546V14.0667V14.0788V14.091V14.1031V14.1153V14.1275V14.1397V14.152V14.1642V14.1765V14.1888V14.2011V14.2135V14.2258V14.2382V14.2506V14.263V14.2755V14.2879V14.3004V14.3129V14.3255V14.338V14.3506V14.3632V14.3758V14.3884V14.4011V14.4137V14.4264V14.4391V14.4519V14.4646V14.4774V14.4902V14.503V14.5158V14.5287V14.5416V14.5545V14.5674V14.5804V14.5933V14.6063V14.6193V14.6323V14.6454V14.6584V14.6715V14.6846V14.6978V14.7109V14.7241V14.7373V14.7505V14.7637V14.777V14.7903V14.8036V14.8169V14.8302V14.8436V14.857V14.8704V14.8838V14.8973V14.9107V14.9242V14.9377V14.9513V14.9648V14.9784V14.992V15.0056V15.0192V15.0329V15.0466V15.0603V15.074V15.0877V15.1015V15.1153V15.1291V15.1429V15.1568V15.1706V15.1845V15.1984V15.2124V15.2263V15.2403V15.2543V15.2683V15.2824V15.2964V15.3105V15.3246V15.3388V15.3529V15.3671V15.3813V15.3955V15.4097V15.424V15.4383V15.4526V15.4669V15.4812V15.4956V15.51V15.5244V15.5388V15.5533V15.5678V15.5823V15.5968V15.6113V15.6259V15.6405V15.6551V15.6697V15.6843V15.699V15.7137V15.7284V15.7432V15.7579V15.7727V15.7875V15.8023V15.8172V15.832V15.8469V15.8618V15.8768V15.8917V15.9067V15.9217V15.9367V15.9518V15.9668V15.9819V15.997V16.0121V16.0273V16.0425V16.0577V16.0729C41.0168 16.0881 41.0152 16.1 41.0143 16.1045C40.6682 17.8207 39.6541 18.9302 38.4904 19.6369C37.5593 20.2024 36.547 20.4986 35.7563 20.6181C35.4691 20.1185 34.9301 19.7821 34.3126 19.7821H30.0165C29.048 19.7821 28.2629 20.5672 28.2629 21.5357V35.1399C28.2629 36.1084 29.048 36.8935 30.0165 36.8935H34.2231Z" stroke="white" stroke-width="1" stroke-linejoin="round"/>
</svg>
