<svg width="64" height="64" viewBox="0 0 64 64" fill="none" xmlns="http://www.w3.org/2000/svg">
<path d="M14.5775 38.1378C12.6017 38.1378 11 39.7395 11 41.7153C11 43.6911 12.6017 45.2928 14.5775 45.2928C15.8822 45.2928 17.0237 44.5944 17.6487 43.5511M14.5775 38.1378C16.5533 38.1378 18.155 39.7395 18.155 41.7153C18.155 42.3864 17.9702 43.0144 17.6487 43.5511M14.5775 38.1378V26.6992M17.6487 43.5511L27.7107 49.3881M17.6487 20.4856C17.0237 19.4423 15.8822 18.7439 14.5775 18.7439C12.6017 18.7439 11 20.3456 11 22.3214C11 24.2972 12.6017 25.8989 14.5775 25.8989C15.8822 25.8989 17.0237 25.2005 17.6487 24.1572C17.9702 23.6205 18.155 22.9925 18.155 22.3214C18.155 21.6502 17.9702 21.0223 17.6487 20.4856ZM17.6487 20.4856L27.8048 14.5544M48.4225 38.1378C50.3983 38.1378 52 39.7395 52 41.7153C52 43.6911 50.3983 45.2928 48.4225 45.2928C47.1179 45.2928 45.9763 44.5944 45.3513 43.5511M48.4225 38.1378C46.4467 38.1378 44.845 39.7395 44.845 41.7153C44.845 42.3864 45.0298 43.0144 45.3513 43.5511M48.4225 38.1378V26.6992M45.3513 43.5511L35.2893 49.3881M45.3513 20.4856C45.9763 19.4423 47.1179 18.7439 48.4225 18.7439C50.3983 18.7439 52 20.3456 52 22.3214C52 24.2972 50.3983 25.8989 48.4225 25.8989C47.1179 25.8989 45.9763 25.2005 45.3513 24.1572C45.0298 23.6205 44.845 22.9925 44.845 22.3214C44.845 21.6502 45.0298 21.0223 45.3513 20.4856ZM45.3513 20.4856L35.1952 14.5544M21.7796 40.2559L28.6051 36.5372V32.9597C28.6051 32.9597 27.0987 31.7829 27.0987 31.171C27.0987 30.559 27.0987 25.1928 27.0987 25.1928C27.0987 25.1928 27.7578 22.3214 31.4765 22.3214C35.1952 22.3214 35.8071 25.1928 35.8071 25.1928C35.8071 25.1928 35.8071 30.4178 35.8071 31.171C35.8071 31.9241 34.2537 32.9597 34.2537 32.9597L34.4891 36.5372L41.2204 40.2559M31.4765 47.9759C29.5007 47.9759 27.899 49.5776 27.899 51.5534C27.899 53.5292 29.5007 55.1309 31.4765 55.1309C32.7811 55.1309 33.9227 54.4325 34.5476 53.3892C34.8692 52.8525 35.054 52.2245 35.054 51.5534C35.054 49.5776 33.4523 47.9759 31.4765 47.9759ZM31.4765 9C29.5007 9 27.899 10.6017 27.899 12.5775C27.899 14.5533 29.5007 16.155 31.4765 16.155C32.7811 16.155 33.9227 15.4566 34.5476 14.4133C34.8692 13.8766 35.054 13.2486 35.054 12.5775C35.054 10.6017 33.4523 9 31.4765 9Z" stroke="white" stroke-width="1.41217" stroke-linecap="round" stroke-linejoin="round"/>
</svg>
