<svg width="1414" height="181" viewBox="0 0 1414 181" fill="none" xmlns="http://www.w3.org/2000/svg">
<path d="M1307.5 22.8906H1302.98V28H1301.4V11.1953H1307.5C1309.59 11.1953 1311.2 11.6992 1312.31 12.707C1313.44 13.7148 1314 15.1641 1314 17.0547C1314 18.9453 1313.44 20.3906 1312.31 21.3906C1311.2 22.3906 1309.59 22.8906 1307.5 22.8906ZM1302.98 12.6367V21.4492H1307.5C1309.06 21.4492 1310.26 21.0742 1311.11 20.3242C1311.95 19.5742 1312.37 18.4844 1312.37 17.0547C1312.37 15.625 1311.95 14.5312 1311.11 13.7734C1310.26 13.0156 1309.06 12.6367 1307.5 12.6367H1302.98ZM1328.98 22.1172L1328.9 23.0312H1318.01C1318.01 23.3906 1318.2 23.8984 1318.59 24.5547C1318.82 24.9375 1319.09 25.2891 1319.41 25.6094C1319.76 25.9531 1320.23 26.2383 1320.82 26.4648C1321.41 26.6914 1322.05 26.8047 1322.74 26.8047C1323.24 26.8047 1323.72 26.7461 1324.18 26.6289C1324.64 26.5117 1325.02 26.3594 1325.32 26.1719C1325.9 25.8125 1326.28 25.4922 1326.46 25.2109L1326.61 25.0234H1328.4C1328.35 25.1406 1328.3 25.2539 1328.24 25.3633C1328.14 25.5352 1327.94 25.7969 1327.64 26.1484C1327.31 26.5234 1326.96 26.8477 1326.58 27.1211C1326.19 27.4102 1325.65 27.6641 1324.97 27.8828C1324.28 28.1172 1323.54 28.2344 1322.74 28.2344C1320.88 28.2344 1319.36 27.668 1318.18 26.5352C1316.99 25.3945 1316.4 23.9219 1316.4 22.1172C1316.4 20.3125 1316.99 18.8398 1318.18 17.6992C1319.36 16.5664 1320.87 16 1322.69 16C1324.52 16 1326.03 16.5664 1327.21 17.6992C1328.39 18.832 1328.98 20.3047 1328.98 22.1172ZM1317.96 21.6367H1327.42C1327.42 20.6836 1327 19.7461 1326.17 18.8242C1325.35 17.9023 1324.19 17.4414 1322.69 17.4414C1321.2 17.4414 1320.04 17.9023 1319.21 18.8242C1318.38 19.7539 1317.96 20.6914 1317.96 21.6367ZM1334.42 26.6055H1339.9V16.2344H1341.38V26.6055H1346.86V16.2344H1348.34V28H1332.93V16.2344H1334.42V26.6055ZM1364.85 22.1172L1364.78 23.0312H1353.89C1353.89 23.3906 1354.08 23.8984 1354.47 24.5547C1354.7 24.9375 1354.97 25.2891 1355.29 25.6094C1355.64 25.9531 1356.1 26.2383 1356.7 26.4648C1357.29 26.6914 1357.93 26.8047 1358.62 26.8047C1359.12 26.8047 1359.6 26.7461 1360.06 26.6289C1360.52 26.5117 1360.9 26.3594 1361.2 26.1719C1361.78 25.8125 1362.16 25.4922 1362.34 25.2109L1362.49 25.0234H1364.28C1364.23 25.1406 1364.18 25.2539 1364.12 25.3633C1364.02 25.5352 1363.82 25.7969 1363.52 26.1484C1363.19 26.5234 1362.84 26.8477 1362.46 27.1211C1362.07 27.4102 1361.53 27.6641 1360.85 27.8828C1360.16 28.1172 1359.42 28.2344 1358.62 28.2344C1356.76 28.2344 1355.24 27.668 1354.06 26.5352C1352.87 25.3945 1352.28 23.9219 1352.28 22.1172C1352.28 20.3125 1352.87 18.8398 1354.06 17.6992C1355.24 16.5664 1356.75 16 1358.57 16C1360.4 16 1361.91 16.5664 1363.09 17.6992C1364.26 18.832 1364.85 20.3047 1364.85 22.1172ZM1353.84 21.6367H1363.3C1363.3 20.6836 1362.88 19.7461 1362.05 18.8242C1361.23 17.9023 1360.07 17.4414 1358.57 17.4414C1357.08 17.4414 1355.92 17.9023 1355.09 18.8242C1354.26 19.7539 1353.84 20.6914 1353.84 21.6367ZM1379.81 28H1378.32V22.6211H1370.3V28H1368.81V16.2344H1370.3V21.2266H1378.32V16.2344H1379.81V28ZM1395.2 28H1393.74V17.8281H1393.69L1386.32 28H1384.23V16.2344H1385.7V26.418H1385.75L1393.12 16.2344H1395.2V28ZM1411.72 22.1172L1411.65 23.0312H1400.76C1400.76 23.3906 1400.95 23.8984 1401.34 24.5547C1401.57 24.9375 1401.84 25.2891 1402.16 25.6094C1402.51 25.9531 1402.97 26.2383 1403.57 26.4648C1404.16 26.6914 1404.8 26.8047 1405.49 26.8047C1405.99 26.8047 1406.47 26.7461 1406.93 26.6289C1407.39 26.5117 1407.77 26.3594 1408.07 26.1719C1408.65 25.8125 1409.03 25.4922 1409.21 25.2109L1409.36 25.0234H1411.15C1411.1 25.1406 1411.05 25.2539 1410.99 25.3633C1410.89 25.5352 1410.69 25.7969 1410.39 26.1484C1410.06 26.5234 1409.71 26.8477 1409.33 27.1211C1408.94 27.4102 1408.4 27.6641 1407.72 27.8828C1407.03 28.1172 1406.29 28.2344 1405.49 28.2344C1403.63 28.2344 1402.11 27.668 1400.93 26.5352C1399.74 25.3945 1399.15 23.9219 1399.15 22.1172C1399.15 20.3125 1399.74 18.8398 1400.93 17.6992C1402.11 16.5664 1403.62 16 1405.44 16C1407.27 16 1408.78 16.5664 1409.96 17.6992C1411.14 18.832 1411.72 20.3047 1411.72 22.1172ZM1400.71 21.6367H1410.17C1410.17 20.6836 1409.75 19.7461 1408.92 18.8242C1408.1 17.9023 1406.94 17.4414 1405.44 17.4414C1403.95 17.4414 1402.79 17.9023 1401.96 18.8242C1401.13 19.7539 1400.71 20.6914 1400.71 21.6367Z" fill="#38B5E8"/>
<path d="M1411.5 78.5284C1345 145.028 1077.5 73.0189 1000.5 110.024C923.5 147.028 831 189.528 810.5 108.528C780.586 -9.6665 954.277 -8.97163 946 78.5284C942.5 115.528 913.5 140.528 868.5 136.028C836.392 132.818 832.5 97.0284 841.5 71.5284C850.5 46.0284 899 23.6749 919.5 54.5284C944.45 92.0791 886.501 141.83 868.5 108.528C848.5 71.5284 887.211 67.4801 891 84.5284C895 102.528 784 122.528 675.5 90.5284C567 58.5284 512 95.0283 470.5 130.028C440.477 155.349 358.5 91.5284 417 78.5284C475.5 65.5283 547.5 129.028 516.5 157.028C485.5 185.028 471 157.028 259.5 169.028C90.3 178.628 226.5 183.001 3 169.029" stroke="url(#paint0_linear_301_9)" stroke-width="5" stroke-linecap="round"/>
<path d="M15.9844 147H14.4023V131.637H3.98438V147H2.40234V130.195H15.9844V147ZM27.1273 135C28.893 135 30.3656 135.57 31.5453 136.711C32.7094 137.859 33.2914 139.328 33.2914 141.117C33.2914 142.914 32.7094 144.383 31.5453 145.523C30.3656 146.664 28.893 147.234 27.1273 147.234C25.0805 147.266 23.5023 146.539 22.393 145.055L22.3461 144.984H22.2523V151.805H20.7641V135.234H22.2523V137.262H22.3461L22.393 137.18C23.5336 135.703 25.1117 134.977 27.1273 135ZM27.0102 145.805C28.4242 145.805 29.5688 145.355 30.4438 144.457C31.3188 143.559 31.7563 142.445 31.7563 141.117C31.7563 139.789 31.3188 138.676 30.4438 137.777C29.5688 136.887 28.4242 136.441 27.0102 136.441C25.6195 136.441 24.4789 136.875 23.5883 137.742C22.6977 138.617 22.2523 139.742 22.2523 141.117C22.2523 142.492 22.6977 143.617 23.5883 144.492C24.4633 145.367 25.6039 145.805 27.0102 145.805ZM38.5398 145.535C37.3523 144.395 36.7586 142.922 36.7586 141.117C36.7586 139.312 37.3523 137.84 38.5398 136.699C39.7195 135.566 41.2234 135 43.0516 135C44.8797 135 46.3836 135.566 47.5633 136.699C48.743 137.832 49.3328 139.305 49.3328 141.117C49.3328 142.93 48.743 144.402 47.5633 145.535C46.3836 146.668 44.8797 147.234 43.0516 147.234C41.2234 147.234 39.7195 146.668 38.5398 145.535ZM43.0516 145.805C44.4656 145.805 45.6102 145.355 46.4852 144.457C47.3602 143.559 47.7977 142.445 47.7977 141.117C47.7977 139.789 47.3602 138.676 46.4852 137.777C45.6102 136.887 44.4656 136.441 43.0516 136.441C41.6453 136.441 40.5008 136.887 39.618 137.777C38.7352 138.684 38.2938 139.797 38.2938 141.117C38.2938 142.438 38.7352 143.551 39.618 144.457C40.493 145.355 41.6375 145.805 43.0516 145.805ZM59.5383 133.348C58.5695 133.348 57.718 133.516 56.9836 133.852C56.257 134.188 55.6984 134.645 55.3078 135.223C54.5891 136.293 54.2297 137.5 54.2297 138.844H54.3C54.3312 138.766 54.382 138.664 54.4523 138.539C54.507 138.438 54.675 138.219 54.9562 137.883C55.2453 137.539 55.5539 137.254 55.882 137.027C56.257 136.762 56.7531 136.535 57.3703 136.348C58.0031 136.152 58.7062 136.055 59.4797 136.055C61.1672 136.055 62.5539 136.578 63.6398 137.625C64.7102 138.672 65.2453 140.012 65.2453 141.645C65.2453 143.293 64.6906 144.637 63.5812 145.676C62.4719 146.715 61.0031 147.234 59.175 147.234C57.2609 147.234 55.7219 146.57 54.5578 145.242C53.3937 143.914 52.8117 142.18 52.8117 140.039V139.031C52.8117 136.93 53.3703 135.215 54.4875 133.887C55.5969 132.566 57.1984 131.906 59.2922 131.906C61.4016 131.906 62.4562 131.336 62.4562 130.195H63.9914C63.9914 131.125 63.6516 131.883 62.9719 132.469C62.2844 133.055 61.1398 133.348 59.5383 133.348ZM62.4914 144.609C63.3039 143.82 63.7102 142.832 63.7102 141.645C63.7102 140.465 63.3039 139.477 62.4914 138.68C61.6633 137.891 60.5656 137.496 59.1984 137.496C57.9328 137.496 56.8664 137.895 55.9992 138.691C55.1242 139.496 54.6867 140.48 54.6867 141.645C54.6867 142.84 55.1242 143.828 55.9992 144.609C56.8664 145.406 57.9328 145.805 59.1984 145.805C60.5734 145.805 61.6711 145.406 62.4914 144.609ZM69.2984 142.465L70.4 135.234H78.8258V147H77.3375V136.629H71.6422L70.7516 142.465C70.4938 144.176 70.1266 145.398 69.65 146.133C69.1734 146.867 68.4703 147.234 67.5406 147.234C67.2594 147.234 67.0016 147.195 66.7672 147.117L66.65 147.07V145.676C66.8297 145.746 67.0875 145.789 67.4234 145.805C67.9859 145.805 68.3961 145.523 68.6539 144.961C68.9117 144.367 69.1266 143.535 69.2984 142.465ZM95.3359 141.117L95.2656 142.031H84.3672C84.3672 142.391 84.5625 142.898 84.9531 143.555C85.1797 143.938 85.4531 144.289 85.7734 144.609C86.1172 144.953 86.5859 145.238 87.1797 145.465C87.7734 145.691 88.4141 145.805 89.1016 145.805C89.6016 145.805 90.082 145.746 90.543 145.629C91.0039 145.512 91.3828 145.359 91.6797 145.172C92.2578 144.812 92.6367 144.492 92.8164 144.211L92.9688 144.023H94.7617C94.7148 144.141 94.6602 144.254 94.5977 144.363C94.5039 144.535 94.3047 144.797 94 145.148C93.6719 145.523 93.3203 145.848 92.9453 146.121C92.5469 146.41 92.0078 146.664 91.3281 146.883C90.6406 147.117 89.8984 147.234 89.1016 147.234C87.2422 147.234 85.7227 146.668 84.543 145.535C83.3555 144.395 82.7617 142.922 82.7617 141.117C82.7617 139.312 83.3555 137.84 84.543 136.699C85.7227 135.566 87.2266 135 89.0547 135C90.8828 135 92.3867 135.566 93.5664 136.699C94.7461 137.832 95.3359 139.305 95.3359 141.117ZM84.3203 140.637H93.7773C93.7773 139.684 93.3633 138.746 92.5352 137.824C91.707 136.902 90.5469 136.441 89.0547 136.441C87.5625 136.441 86.4023 136.902 85.5742 137.824C84.7383 138.754 84.3203 139.691 84.3203 140.637ZM110.862 136.898H110.815L106.83 143.836H104.815L100.83 136.898H100.784V147H99.2953V135.234H101.604L105.799 142.676H105.846L110.053 135.234H112.35V147H110.862V136.898ZM116.18 143.789C116.18 142.648 116.696 141.777 117.727 141.176C118.751 140.582 120.044 140.285 121.606 140.285C122.427 140.285 123.212 140.387 123.962 140.59C124.704 140.801 125.231 141 125.544 141.188L126.048 141.504V139.348C126.048 138.387 125.684 137.652 124.958 137.145C124.223 136.645 123.313 136.395 122.227 136.395C121.165 136.395 120.243 136.613 119.462 137.051C118.68 137.48 118.29 138.02 118.29 138.668H116.802C116.841 137.699 117.321 136.848 118.243 136.113C119.173 135.371 120.485 135 122.18 135C123.712 135 124.985 135.367 126.001 136.102C127.024 136.844 127.536 137.926 127.536 139.348V144.316C127.536 144.879 127.622 145.277 127.794 145.512C127.973 145.738 128.27 145.852 128.684 145.852C128.95 145.852 129.165 145.82 129.329 145.758L129.399 145.699V147C129.18 147.109 128.86 147.164 128.438 147.164C127.696 147.164 127.165 146.996 126.845 146.66C126.516 146.34 126.321 146.086 126.259 145.898L126.235 145.758H126.165C126.11 145.852 125.876 146.02 125.462 146.262C125.173 146.441 124.876 146.594 124.571 146.719C123.813 147.062 122.856 147.234 121.7 147.234C120.083 147.234 118.759 146.953 117.727 146.391C116.696 145.828 116.18 144.961 116.18 143.789ZM117.716 143.789C117.716 145.164 119.106 145.852 121.887 145.852C122.708 145.852 123.47 145.73 124.173 145.488C124.868 145.246 125.329 145.047 125.555 144.891C125.766 144.734 125.93 144.605 126.048 144.504V142.852C125.993 142.781 125.841 142.668 125.591 142.512C125.309 142.348 124.833 142.168 124.161 141.973C123.458 141.77 122.7 141.668 121.887 141.668C120.247 141.668 119.063 141.953 118.337 142.523C117.923 142.852 117.716 143.273 117.716 143.789Z" fill="#2562F4"/>
<defs>
<linearGradient id="paint0_linear_301_9" x1="-1245.22" y1="223.928" x2="-1246.32" y2="-10.5961" gradientUnits="userSpaceOnUse">
<stop stop-color="#1A36F9"/>
<stop offset="1" stop-color="#4AFFDF"/>
</linearGradient>
</defs>
</svg>
