<svg xmlns="http://www.w3.org/2000/svg" width="28" height="28" viewBox="0 0 28 28">
    <g id="crm" transform="translate(0 -68.477)">
        <path id="Контур_1417" d="M271.639 243.772l-.813-1.474a1.3 1.3 0 0 0 .807-1.354q0-1.427-1.641-1.427h-1.38a.313.313 0 0 0-.32.313v4.241a.259.259 0 0 0 .153.237.849.849 0 0 0 .734 0 .259.259 0 0 0 .153-.237v-1.607h.44l.914 1.774a.346.346 0 0 0 .333.193.687.687 0 0 0 .443-.173.484.484 0 0 0 .21-.367.2.2 0 0 0-.033-.119zm-1.2-2.251a.631.631 0 0 1-.447.143h-.66v-1.24h.66a.671.671 0 0 1 .447 1.1z"  transform="translate(-253.619 -157.905)"/>
        <path id="Контур_1418" d="M343.382 239.644a.554.554 0 0 0-.37-.127.932.932 0 0 0-.457.09 1.16 1.16 0 0 0-.35.43l-.687 1.2-.687-1.2a1.161 1.161 0 0 0-.35-.43.933.933 0 0 0-.457-.09.554.554 0 0 0-.37.127.487.487 0 0 0-.15.393v4.035a.259.259 0 0 0 .153.237.849.849 0 0 0 .734 0 .259.259 0 0 0 .153-.237V241.5l.634 1.16a.341.341 0 0 0 .327.193.375.375 0 0 0 .347-.193l.64-1.094v2.5a.259.259 0 0 0 .153.237.849.849 0 0 0 .734 0 .259.259 0 0 0 .153-.237v-4.035a.487.487 0 0 0-.15-.387z" transform="translate(-320.937 -157.905)"/>
        <path id="Контур_1415" d="M25.8 72.477H2.2a2.2 2.2 0 0 0-2.2 2.2v15.67a2.2 2.2 0 0 0 2.2 2.2h23.6a2.2 2.2 0 0 0 2.2-2.2V74.679a2.2 2.2 0 0 0-2.2-2.202zM5.511 90.908H2.2a.561.561 0 0 1-.56-.56V74.679a.561.561 0 0 1 .56-.56h3.311zm20.847-.56a.561.561 0 0 1-.56.56H7.153V77.4h19.205zm0-14.593H7.153v-1.637H25.8a.561.561 0 0 1 .56.56z" />
        <path id="Контур_1416" d="M201.532 242.544q-.487 0-.513.313a2.182 2.182 0 0 1-.03.22 1.109 1.109 0 0 1-.07.2.356.356 0 0 1-.177.183.708.708 0 0 1-.31.06q-.607 0-.607-.667v-1.763q0-.667.6-.667a.539.539 0 0 1 .594.6q.02.314.52.313a.613.613 0 0 0 .4-.1.5.5 0 0 0 .12-.39 1.151 1.151 0 0 0-.47-.974 1.949 1.949 0 0 0-1.2-.353 1.715 1.715 0 0 0-1.157.38 1.489 1.489 0 0 0-.444 1.194v1.767a1.489 1.489 0 0 0 .444 1.194 1.715 1.715 0 0 0 1.157.38 1.875 1.875 0 0 0 1.2-.373 1.233 1.233 0 0 0 .47-1.02.5.5 0 0 0-.12-.39.627.627 0 0 0-.407-.107z" transform="translate(-187.913 -157.904)"/>
    </g>
</svg>
