<svg xmlns="http://www.w3.org/2000/svg" viewBox="0 0 16 16">
<path d="M8,14.8c-3.2,0-5.8-2.6-5.8-5.8c0-0.9,0.2-1.8,0.6-2.6C3.1,6,3.5,5.9,3.9,6c0.4,0.2,0.5,0.6,0.3,1C3.9,7.7,3.8,8.3,3.8,9c0,2.3,1.9,4.3,4.3,4.3c2.3,0,4.3-1.9,4.3-4.3c0-2.3-1.9-4.3-4.3-4.3H5.7C5.3,4.8,4.9,4.4,4.9,4s0.3-0.8,0.8-0.8H8c3.2,0,5.8,2.6,5.8,5.8C13.8,12.2,11.2,14.8,8,14.8z"/>
<path d="M7.7,6.8c-0.2,0-0.4-0.1-0.5-0.2l-2-2c-0.3-0.3-0.3-0.8,0-1.1l2-2c0.3-0.3,0.8-0.3,1.1,0s0.3,0.8,0,1.1L6.7,4l1.5,1.5c0.3,0.3,0.3,0.8,0,1.1C8.1,6.7,7.9,6.8,7.7,6.8z"/>
</svg>
