<svg xmlns="http://www.w3.org/2000/svg" width="28" height="28" viewBox="0 0 28 28">
    <g id="analytics" transform="translate(0 -33.201)">
        <g id="Сгруппировать_1301" transform="translate(0 35.201)">
            <g id="Сгруппировать_1300">
                <path id="Контур_1366" d="M27 35.2H1a1.006 1.006 0 0 0-1 1v16.1a1.006 1.006 0 0 0 1 1h.476L.255 54.536a.82.82 0 1 0 1.16 1.16L3.8 53.309h7.587v3.323a16.565 16.565 0 0 0-3.947 1.145.82.82 0 1 0 .648 1.507A14.911 14.911 0 0 1 14 58.066h.005a14.909 14.909 0 0 1 5.908 1.213h.01a.82.82 0 0 0 .648-1.507h-.011a16.567 16.567 0 0 0-3.949-1.142v-3.321H27a1.006 1.006 0 0 0 1-1v-16.1a1.006 1.006 0 0 0-1-1.009zM14.972 56.455c-.321-.018-.642-.029-.966-.029H14c-.325 0-.649.011-.972.029v-3.146h1.944v3.146zm11.388-4.786H5.441L7.5 49.611a4.813 4.813 0 1 0-1.324-1l-3.055 3.058H1.64V36.841h24.72zM6.514 45.333a3.158 3.158 0 1 1 3.158 3.158 3.162 3.162 0 0 1-3.158-3.158z" transform="translate(0 -35.201)"/>
            </g>
        </g>
        <g id="Сгруппировать_1303" transform="translate(15.762 45.455)">
            <g id="Сгруппировать_1302">
                <path id="Контур_1367" d="M289.047 222.709a.82.82 0 0 0-.82.82v3.165a.82.82 0 1 0 1.64 0v-3.165a.82.82 0 0 0-.82-.82z" transform="translate(-288.227 -222.709)"/>
            </g>
        </g>
        <g id="Сгруппировать_1305" transform="translate(18.332 39.988)">
            <g id="Сгруппировать_1304">
                <path id="Контур_1368" d="M336.038 122.729a.82.82 0 0 0-.82.82v8.633a.82.82 0 1 0 1.64 0v-8.633a.82.82 0 0 0-.82-.82z" transform="translate(-335.218 -122.729)"/>
            </g>
        </g>
        <g id="Сгруппировать_1307" transform="translate(20.945 42.175)">
            <g id="Сгруппировать_1306">
                <path id="Контур_1369" d="M383.806 162.721a.82.82 0 0 0-.82.82v6.446a.82.82 0 1 0 1.64 0v-6.446a.82.82 0 0 0-.82-.82z" transform="translate(-382.986 -162.721)"/>
            </g>
        </g>
        <g id="Сгруппировать_1309" transform="translate(23.559 44.362)">
            <g id="Сгруппировать_1308">
                <path id="Контур_1370" d="M431.606 202.713a.82.82 0 0 0-.82.82v4.259a.82.82 0 1 0 1.64 0v-4.259a.82.82 0 0 0-.82-.82z" transform="translate(-430.786 -202.713)"/>
            </g>
        </g>
    </g>
</svg>
