<svg xmlns="http://www.w3.org/2000/svg" width="18" height="18" viewBox="0 0 18 18">
    <g id="problem" transform="translate(-255 -1126)">
        <g id="surface1" transform="translate(252 1120.686)">
            <path id="Контур_1342" d="M282.9 150.785a2 2 0 0 0-2 2v7.864a2 2 0 0 0 4 0v-7.864a2 2 0 0 0-2-2zm0 0"  transform="translate(-271.022 -145.471)"/>
            <path id="Контур_1343" d="M284.861 257.036c-.014-.064-.029-.128-.048-.191a1.744 1.744 0 0 0-.067-.185 1.677 1.677 0 0 0-.083-.177c-.031-.057-.065-.114-.1-.168a1.79 1.79 0 0 0-.116-.158 1.667 1.667 0 0 0-.132-.147 1.8 1.8 0 0 0-.147-.132 1.862 1.862 0 0 0-.157-.116c-.055-.036-.111-.07-.169-.1a1.777 1.777 0 0 0-.177-.083c-.06-.025-.123-.048-.184-.067s-.127-.035-.191-.048a1.973 1.973 0 0 0-.588-.029 1.852 1.852 0 0 0-.194.029c-.064.013-.128.03-.19.048s-.124.042-.186.067a1.787 1.787 0 0 0-.176.083c-.057.031-.115.065-.168.1s-.108.075-.159.116a1.78 1.78 0 0 0-.145.132 1.669 1.669 0 0 0-.132.147 1.723 1.723 0 0 0-.117.158 1.867 1.867 0 0 0-.1.168c-.031.057-.059.117-.084.177s-.047.122-.065.185a1.5 1.5 0 0 0-.048.191 1.861 1.861 0 0 0-.03.193c-.006.065-.01.132-.01.2s0 .13.01.2a1.823 1.823 0 0 0 .03.2 1.43 1.43 0 0 0 .048.189c.019.063.041.124.065.185s.054.12.084.177a1.633 1.633 0 0 0 .1.168 1.833 1.833 0 0 0 .117.159 1.714 1.714 0 0 0 .132.145 1.742 1.742 0 0 0 .145.133c.051.041.1.081.159.117a1.913 1.913 0 0 0 .168.1c.058.03.118.058.178.084a1.7 1.7 0 0 0 .184.065 1.4 1.4 0 0 0 .19.048 1.87 1.87 0 0 0 .194.03 1.935 1.935 0 0 0 .588-.03 1.573 1.573 0 0 0 .191-.048c.061-.019.124-.04.184-.065s.12-.053.177-.084.114-.064.169-.1a2.118 2.118 0 0 0 .3-.25 1.713 1.713 0 0 0 .132-.145 1.908 1.908 0 0 0 .116-.159 1.873 1.873 0 0 0 .1-.168 1.582 1.582 0 0 0 .083-.177 1.731 1.731 0 0 0 .067-.185c.019-.061.034-.125.048-.189a1.854 1.854 0 0 0 .029-.2 1.927 1.927 0 0 0 .009-.2 1.952 1.952 0 0 0-.009-.2 1.875 1.875 0 0 0-.025-.193zm0 0" transform="translate(-271.02 -236.115)"/>
        </g>
    </g>
</svg>
