<svg xmlns="http://www.w3.org/2000/svg" viewBox="0 0 16 16">
<g>
	<path d="M0,0h16v16H0V0z"/>
	<path fill="#fff" d="M8.1,13.1H8c-0.8,0-1.5,0-2.3-0.1c-0.6,0-1.2-0.3-1.7-0.7c-0.5-0.4-0.8-0.9-0.9-1.5C3,10.3,2.9,9.8,2.9,9.3
		c0-0.4,0-0.8,0-1.3c0-0.4,0-0.9,0-1.3c0-0.5,0-1.1,0.2-1.6C3.2,4.5,3.5,4,4,3.6C4.5,3.2,5.1,3,5.7,3c0.7,0,1.5-0.1,2.3-0.1
		c0.8,0,1.5,0,2.3,0.1c0.6,0,1.2,0.3,1.7,0.7c0.5,0.4,0.8,0.9,0.9,1.5c0.1,0.5,0.2,1.1,0.2,1.6c0,0.4,0,0.8,0,1.3c0,0.4,0,0.9,0,1.3
		c0,0.5,0,1.1-0.2,1.6c-0.1,0.6-0.5,1.1-0.9,1.5c-0.5,0.4-1.1,0.6-1.7,0.7C9.6,13.1,8.9,13.1,8.1,13.1z M8,12.3c0.8,0,1.5,0,2.2-0.1
		c0.5,0,0.9-0.2,1.3-0.5c0.3-0.3,0.6-0.7,0.7-1.1c0.1-0.5,0.1-0.9,0.1-1.4c0-0.4,0-0.8,0-1.3s0-0.9,0-1.3c0-0.5,0-0.9-0.1-1.4
		c-0.1-0.4-0.3-0.8-0.7-1.1c-0.4-0.3-0.8-0.5-1.3-0.5C9.5,3.7,8.8,3.7,8,3.7c-0.8,0-1.5,0-2.2,0.1C5.3,3.8,4.9,4,4.5,4.2
		C4.2,4.5,3.9,4.9,3.8,5.3C3.7,5.8,3.7,6.3,3.7,6.8c0,0.4,0,0.8,0,1.3c0,0.4,0,0.9,0,1.2c0,0.5,0,0.9,0.1,1.4
		c0.1,0.4,0.3,0.8,0.7,1.1c0.4,0.3,0.8,0.5,1.3,0.5C6.5,12.3,7.2,12.3,8,12.3L8,12.3z M8,10.5c-1.4,0-2.5-1.1-2.5-2.5S6.6,5.5,8,5.5
		s2.5,1.1,2.5,2.5c0,0,0,0,0,0C10.5,9.4,9.4,10.5,8,10.5L8,10.5z M8,6.3C7,6.3,6.3,7.1,6.3,8S7,9.7,8,9.7S9.7,8.9,9.7,8
		C9.7,7.1,8.9,6.3,8,6.3L8,6.3z M10.7,4.7c-0.3,0-0.6,0.3-0.6,0.6c0,0.3,0.3,0.6,0.6,0.6c0.3,0,0.6-0.3,0.6-0.6S11.1,4.7,10.7,4.7z"
		/>
	<path fill="#fff" d="M8.1,13.2H8c-0.9,0-1.6,0-2.3-0.1c-0.7,0-1.3-0.3-1.8-0.7c-0.5-0.4-0.8-1-1-1.6c-0.1-0.5-0.2-1.1-0.2-1.6
		c0-0.4,0-0.8,0-1.3c0-0.4,0-0.9,0-1.3c0-0.5,0-1.1,0.2-1.6c0.1-0.6,0.5-1.2,1-1.6c0.5-0.4,1.2-0.7,1.8-0.7c0.7,0,1.4-0.1,2.3-0.1
		c0.8,0,1.6,0,2.3,0.1c0.7,0,1.3,0.3,1.8,0.7c0.5,0.4,0.8,1,1,1.6c0.1,0.5,0.2,1.1,0.2,1.6c0,0.4,0,0.8,0,1.3c0,0.4,0,0.9,0,1.2
		c0,0.6,0,1.1-0.2,1.6c-0.1,0.6-0.5,1.2-1,1.6c-0.5,0.4-1.2,0.7-1.8,0.7C9.6,13.2,8.9,13.2,8.1,13.2z M8,3.1c-0.8,0-1.5,0-2.2,0.1
		c-0.6,0-1.2,0.2-1.7,0.6C3.7,4.1,3.4,4.6,3.2,5.2c-0.1,0.5-0.2,1-0.2,1.6c0,0.4,0,0.8,0,1.3c0,0.4,0,0.9,0,1.2c0,0.5,0,1.1,0.2,1.6
		c0.1,0.6,0.4,1.1,0.9,1.4c0.5,0.4,1,0.6,1.6,0.6c0.7,0,1.4,0.1,2.2,0.1h0.1c0.8,0,1.5,0,2.1-0.1c0.6,0,1.2-0.2,1.7-0.6
		c0.4-0.4,0.8-0.9,0.9-1.4c0.1-0.5,0.2-1,0.2-1.6c0-0.4,0-0.8,0-1.3c0-0.4,0-0.9,0-1.3c0-0.5,0-1.1-0.2-1.6
		c-0.1-0.6-0.4-1.1-0.9-1.4c-0.5-0.4-1-0.6-1.6-0.6C9.5,3.1,8.8,3.1,8,3.1z M7.9,12.4c-0.7,0-1.4,0-2.1-0.1c-0.5,0-1-0.2-1.4-0.5
		c-0.4-0.3-0.6-0.7-0.7-1.2c-0.1-0.5-0.1-1-0.1-1.5c0-0.4,0-0.8,0-1.2s0-0.9,0-1.3c0-0.5,0-1,0.1-1.4c0.1-0.5,0.4-0.9,0.7-1.2
		c0.4-0.3,0.9-0.5,1.4-0.5c0.6,0,1.4-0.1,2.2-0.1c0.9,0,1.6,0,2.2,0.1c0.5,0,1,0.2,1.4,0.5c0.4,0.3,0.6,0.7,0.7,1.2
		c0.1,0.5,0.1,1,0.1,1.5l0,0.1c0,0.3,0,0.7,0,1.1c0,0.4,0,0.9,0,1.3c0,0.5,0,1-0.1,1.4c-0.1,0.5-0.4,0.9-0.7,1.2
		c-0.4,0.3-0.9,0.5-1.4,0.5c-0.6,0-1.3,0.1-2.1,0.1l0,0l-0.1,0C8,12.4,7.9,12.4,7.9,12.4z M8,3.9c-0.9,0-1.6,0-2.2,0.1
		c-0.4,0-0.9,0.2-1.2,0.4C4.3,4.6,4.1,5,4,5.4C3.9,5.8,3.9,6.3,3.9,6.7c0,0.4,0,0.8,0,1.3s0,0.9,0,1.2c0,0.5,0,0.9,0.1,1.4
		c0.1,0.4,0.3,0.7,0.6,1c0.3,0.3,0.8,0.4,1.2,0.4c0.7,0,1.3,0.1,2.1,0.1v0l0.1,0c0.8,0,1.5,0,2.2-0.1c0.4,0,0.9-0.2,1.2-0.4
		c0.3-0.3,0.5-0.6,0.6-1c0.1-0.4,0.1-0.9,0.1-1.4c0-0.4,0-0.8,0-1.3c0-0.4,0-0.8,0-1.1l0-0.1c0-0.5,0-0.9-0.1-1.4
		c-0.1-0.4-0.3-0.7-0.6-1c-0.3-0.3-0.8-0.4-1.2-0.4C9.6,3.9,8.9,3.9,8,3.9z M7.8,10.6L7.8,10.6C6.4,10.5,5.3,9.4,5.3,8
		c0-1.5,1.2-2.6,2.6-2.6c0,0,0,0,0,0c0.7,0,1.4,0.3,1.9,0.8c0.5,0.5,0.8,1.2,0.8,1.9c0,1.5-1.2,2.6-2.6,2.6H7.8z M8,5.7
		C8,5.7,8,5.7,8,5.7c-1.3,0-2.3,1-2.3,2.3s1,2.3,2.3,2.3h0.1c1.2-0.1,2.2-1.1,2.2-2.3c0-0.6-0.2-1.2-0.7-1.7C9.2,5.9,8.6,5.7,8,5.7z
		 M8,9.8C7,9.8,6.1,9,6.1,8S7,6.2,8,6.2h0.2l0,0C9.1,6.3,9.8,7.1,9.8,8C9.8,9,9,9.8,8,9.8z M7.9,6.5C7.1,6.5,6.4,7.2,6.4,8
		c0,0.8,0.7,1.5,1.5,1.5S9.5,8.8,9.5,8C9.5,7.1,8.8,6.5,7.9,6.5L7.9,6.5z M10.7,6.1c-0.4,0-0.8-0.3-0.8-0.8s0.3-0.7,0.8-0.7
		c0.4,0,0.8,0.3,0.8,0.7S11.2,6.1,10.7,6.1z M10.7,4.9c-0.2,0-0.5,0.2-0.5,0.4s0.2,0.5,0.5,0.5s0.4-0.2,0.4-0.5S11,4.9,10.7,4.9z"/>
</g>
</svg>
