<svg xmlns="http://www.w3.org/2000/svg" width="36" height="36" viewBox="0 0 36 36">
    <g>
        <g>
            <path d="M50.162 68.779L36.585 41.712a1.088 1.088 0 0 0-.336-.562c-.747-.67-2.038-.183-4.32 1.632-.4.318-.819.671-1.25 1.049l-.9-1.922a.7.7 0 0 0-1.274.595l1.081 2.317c-1.035.97-2.123 2.07-3.213 3.251l-2.435-1.979a.7.7 0 0 0-.887 1.091l2.377 1.932c-1.028 1.159-1.987 2.313-2.838 3.414l-6.247-2.154a.7.7 0 0 0-.458 1.33l5.818 2.006c-.475.653-.9 1.28-1.276 1.866-1.561 2.462-1.909 3.8-1.163 4.469a1.086 1.086 0 0 0 .593.274l15.856 5.937 5.835 2.185 6.669 2.5a1.559 1.559 0 0 0 1.942-2.16zm-8.705-14.218a3.161 3.161 0 1 1-2.74-5.462zm-19.538 1.3c.351-.53.748-1.091 1.179-1.674.392.135.784.275 1.178.406a.7.7 0 1 0 .427-1.341l-.7-.243c.771-.98 1.623-2 2.524-3.011l.441.359a1.208 1.208 0 0 0 .624.356.7.7 0 0 0 .583-1.178 1.687 1.687 0 0 0-.181-.156l-.522-.424c.926-1 1.854-1.945 2.747-2.8a.853.853 0 0 0 .361.438.7.7 0 0 0 1.033-.633 1.037 1.037 0 0 0-.131-.425l-.179-.384c.369-.331.729-.642 1.075-.929a11.186 11.186 0 0 1 2.8-1.883 6.576 6.576 0 0 1-.657 1.485c-.38.687-.808 1.348-1.253 1.994-.934 1.355-1.952 2.652-3.011 3.911Q28.6 51.7 26.809 53.54c-1.064 1.091-2.164 2.149-3.325 3.137-.573.488-1.162.962-1.781 1.392a7.554 7.554 0 0 1-1.189.706c-.056.025-.112.049-.169.07a11.2 11.2 0 0 1 1.574-2.98zM42.564 67.32l-5.7-2.136a3.06 3.06 0 0 1 5.7 2.136zm6.318 2.261a.141.141 0 0 1-.169.041l-4.828-1.808a4.466 4.466 0 0 0-8.347-3.125l-13.6-5.09a23.405 23.405 0 0 0 3.133-2.446c1.057-.942 2.07-1.934 3.051-2.954q1.521-1.58 2.943-3.253c.921-1.084 1.812-2.194 2.652-3.342a27.715 27.715 0 0 0 2.169-3.358c.068-.128.133-.257.2-.387l1.984 3.955a4.567 4.567 0 1 0 4.03 8.034l6.8 13.562a.141.141 0 0 1-.023.172zm0 0" transform="translate(-255 -433) translate(255 433.9) translate(-14.329 -38.025)"/>
            <path d="M4.714 9.774a.7.7 0 0 0 .566.286.721.721 0 0 0 .12-.01.7.7 0 0 0 .552-.5l.7-2.406 2.378-.789a.7.7 0 0 0 .176-1.245L7.134 3.7l-.015-2.5A.7.7 0 0 0 5.984.646L4.005 2.182l-2.387-.76a.7.7 0 0 0-.875.909l.849 2.357-1.46 2.035a.7.7 0 0 0 .594 1.113l2.5-.079zM3.041 4.558l-.492-1.364 1.382.44a.7.7 0 0 0 .644-.115l1.146-.889.009 1.45a.7.7 0 0 0 .308.577l1.2.815-1.376.456a.7.7 0 0 0-.454.471L5 7.793l-.86-1.168a.7.7 0 0 0-.566-.286h-.019l-1.449.046.845-1.178a.7.7 0 0 0 .09-.648zm0 0" transform="translate(-255 -433) translate(255 433.9) translate(-.001 -.498)"/>
            <path d="M364.716 14.235l2.216 1.168.294 2.488a.7.7 0 0 0 .463.58.7.7 0 0 0 .235.04.7.7 0 0 0 .491-.2l1.8-1.747 2.457.489a.7.7 0 0 0 .768-1l-1.107-2.248 1.224-2.186a.7.7 0 0 0-.714-1.039l-2.479.358-1.7-1.84a.7.7 0 0 0-1.209.358l-.426 2.469-2.275 1.049a.7.7 0 0 0-.033 1.261zm3.233-1.187a.7.7 0 0 0 .4-.519l.247-1.429.984 1.065a.7.7 0 0 0 .617.219l1.435-.207-.709 1.265a.7.7 0 0 0-.017.654l.641 1.3-1.422-.283a.7.7 0 0 0-.627.186l-1.039 1.011-.171-1.44a.7.7 0 0 0-.371-.539l-1.283-.676zm0 0" transform="translate(-255 -433) translate(255 433.9) translate(-338.723 -8.284)"/>
            <path d="M39.38 347.253l-2.454-.507-.973-2.308a.7.7 0 0 0-1.259-.075l-1.24 2.177-2.5.212a.7.7 0 0 0-.46 1.174l1.687 1.852-.569 2.439a.7.7 0 0 0 .974.8l2.282-1.032 2.144 1.3a.7.7 0 0 0 1.062-.68l-.276-2.49 1.894-1.639a.7.7 0 0 0-.318-1.22zm-2.78 2.038a.7.7 0 0 0-.239.609l.16 1.441-1.241-.75a.7.7 0 0 0-.653-.039l-1.321.6.33-1.412a.7.7 0 0 0-.165-.633l-.976-1.072 1.445-.123a.7.7 0 0 0 .552-.353l.718-1.26.563 1.336a.7.7 0 0 0 .506.415l1.42.293zm0 0" transform="translate(-255 -433) translate(255 433.9) translate(-28.184 -319.855)"/>
            <path d="M183.673 14.316a.7.7 0 1 0 .259-.854.709.709 0 0 0-.259.854zm0 0" transform="translate(-255 -433) translate(255 433.9) translate(-170.709 -12.442)"/>
            <path d="M202.417 251.594a2.522 2.522 0 1 0 2.522 2.522 2.525 2.525 0 0 0-2.522-2.522zm0 3.638a1.116 1.116 0 1 1 1.115-1.116 1.117 1.117 0 0 1-1.115 1.116zm0 0" transform="translate(-255 -433) translate(255 433.9) translate(-185.84 -233.939)"/>
        </g>
    </g>
</svg>
