<svg xmlns="http://www.w3.org/2000/svg" width="28" height="28" viewBox="0 0 28 28">
    <g>
        <path d="M25.651 16.3A8.069 8.069 0 0 0 14 16.59 8.042 8.042 0 1 0 2.554 27.869a2.819 2.819 0 0 0 1.584 4.813 2.821 2.821 0 0 0 2.8 3 2.817 2.817 0 0 0 3.517 2.525 2.819 2.819 0 0 0 4.7 1.255c.86-.855 1.544-1.394 1.588-2.689a2.822 2.822 0 0 0 2.673-2.707 2.82 2.82 0 0 0 2.707-2.707 2.822 2.822 0 0 0 2.71-2.883l.817-.817a8.043 8.043 0 0 0 .001-11.359zM3.786 29.177l.767-.767a1.017 1.017 0 0 1 1.438 1.438l-.767.767a1.017 1.017 0 0 1-1.438-1.438zm2.139 3.7a1.01 1.01 0 0 1 .3-.719l.767-.767a1.017 1.017 0 0 1 1.437 1.438l-.679.671a1.066 1.066 0 0 1-.809.388 1.022 1.022 0 0 1-1.017-1.014zm3.1 3.336a1.021 1.021 0 0 1 0-1.438L9.7 34.1a1.03 1.03 0 0 1 1.525-.1 1.018 1.018 0 0 1 0 1.438l-.767.767a1.018 1.018 0 0 1-1.438 0zm5.634 1.218l-.767.767a1.017 1.017 0 0 1-1.438 0 1.021 1.021 0 0 1 0-1.438l.767-.767a1.017 1.017 0 0 1 1.438 1.438zm8.088-8.156a1.022 1.022 0 0 1-1.438 0l-3.995-3.995-1.274 1.267 3.995 3.995A1.017 1.017 0 0 1 18.6 31.98l-3.93-3.927-.068-.068-1.269 1.269.068.068 3.927 3.927a1.017 1.017 0 0 1-1.438 1.438 2.813 2.813 0 0 0-2.67-.7 2.825 2.825 0 0 0-2.708-2.078 2.822 2.822 0 0 0-2.436-2.593A2.818 2.818 0 0 0 3.9 26.675a6.251 6.251 0 1 1 8.83-8.815l-2.22 2.219 1.778 1.778a4.07 4.07 0 0 0 5.04.564l5.413 5.413a1.018 1.018 0 0 1 0 1.438zm1.639-2.88l-.274.273q-.047-.052-.1-.1L17.4 19.953l-.635.635a2.27 2.27 0 0 1-3.207 0l-.509-.509 2.509-2.509a6.239 6.239 0 0 1 8.823 8.823z" transform="translate(0 -12.955)"/>
    </g>
</svg>
