<svg xmlns="http://www.w3.org/2000/svg" width="28" height="28" viewBox="0 0 28 28">
    <g id="door" transform="translate(-61.3)">
        <g id="Сгруппировать_1286" transform="translate(65.5)">
            <g id="Сгруппировать_1285">
                <path id="Контур_1352" d="M83.774 0H66.526A1.023 1.023 0 0 0 65.5 1.021v25.958A1.023 1.023 0 0 0 66.526 28h17.248a1.023 1.023 0 0 0 1.026-1.021V1.021A1.023 1.023 0 0 0 83.774 0zm-.324 26.724h-16.6V1.343h16.6z" transform="translate(-65.5)"/>
            </g>
        </g>
        <g id="Сгруппировать_1288" transform="translate(69.144 2.902)">
            <g id="Сгруппировать_1287">
                <path id="Контур_1353" d="M124.021 43h-3.847a.677.677 0 0 0-.675.675v8.773a.677.677 0 0 0 .675.675h3.847a.677.677 0 0 0 .675-.675v-8.773a.677.677 0 0 0-.675-.675zm-.675 8.773h-2.5V44.35h2.5z" transform="translate(-119.5 -43)"/>
            </g>
        </g>
        <g id="Сгруппировать_1290" transform="translate(75.96 2.902)">
            <g id="Сгруппировать_1289">
                <path id="Контур_1354" d="M225.021 43h-3.846a.677.677 0 0 0-.675.675v8.773a.677.677 0 0 0 .675.675h3.846a.677.677 0 0 0 .675-.675v-8.773a.677.677 0 0 0-.675-.675zm-.675 8.773h-2.5V44.35h2.5z" transform="translate(-220.5 -43)"/>
            </g>
        </g>
        <g id="Сгруппировать_1292" transform="translate(69.144 15.184)">
            <g id="Сгруппировать_1291">
                <path id="Контур_1355" d="M130.9 225h-10.73a.677.677 0 0 0-.675.675v8.773a.677.677 0 0 0 .675.675h10.73a.677.677 0 0 0 .675-.675v-8.773a.677.677 0 0 0-.675-.675zm-.742 8.773h-9.308v-7.423h9.313z" transform="translate(-119.5 -225)"/>
            </g>
        </g>
        <g id="Сгруппировать_1294" transform="translate(81.831 11.674)">
            <g id="Сгруппировать_1293">
                <path id="Контур_1356" d="M308.175 173a.677.677 0 0 0-.675.675v2.456a.675.675 0 1 0 1.35 0v-2.456a.677.677 0 0 0-.675-.675z" transform="translate(-307.5 -173)"/>
            </g>
        </g>
    </g>
</svg>
