<svg xmlns="http://www.w3.org/2000/svg" width="28" height="28" viewBox="0 0 28 28">
    <g id="ads" transform="translate(0 .667)">
        <g id="Сгруппировать_1295" transform="translate(0 19.583)">
            <path id="Контур_1361" d="M27.125 19.25H.875a.875.875 0 0 1 0-1.75h26.25a.875.875 0 0 1 0 1.75z"  transform="translate(0 -17.5)"/>
        </g>
        <g id="Сгруппировать_1296" transform="translate(2.333 5)">
            <path id="Контур_1362" d="M24.458 21.333a.875.875 0 0 1-.875-.875V7.042a.292.292 0 0 0-.292-.292H4.042a.292.292 0 0 0-.292.292v13.416a.875.875 0 1 1-1.75 0V7.042A2.044 2.044 0 0 1 4.042 5h19.25a2.044 2.044 0 0 1 2.042 2.042v13.416a.875.875 0 0 1-.876.875z" transform="translate(-2 -5)"/>
        </g>
        <g id="Сгруппировать_1297" transform="translate(14.583 9.667)">
            <path id="Контур_1363" d="M14.25 16h-.875a.875.875 0 0 1-.875-.875v-5.25A.875.875 0 0 1 13.375 9h.875a3.5 3.5 0 0 1 0 7zm0-5.25v3.5a1.75 1.75 0 1 0 0-3.5z" transform="translate(-12.5 -9)"/>
        </g>
        <g id="Сгруппировать_1298" transform="translate(8.167 9.667)">
            <path id="Контур_1364" d="M10.792 16a.875.875 0 0 1-.875-.875v-3.792a.583.583 0 0 0-1.167 0v3.792a.875.875 0 1 1-1.75 0v-3.792a2.333 2.333 0 0 1 4.667 0v3.792a.875.875 0 0 1-.875.875z"  transform="translate(-7 -9)"/>
        </g>
        <g id="Сгруппировать_1299" transform="translate(8.167 13.167)">
            <path id="Контур_1365" d="M10.792 13.75H7.875a.875.875 0 1 1 0-1.75h2.917a.875.875 0 1 1 0 1.75z"  transform="translate(-7 -12)"/>
        </g>
    </g>
</svg>
