<svg xmlns="http://www.w3.org/2000/svg" width="28" height="28" viewBox="0 0 28 28">
    <g id="customer_service" transform="translate(-44.089)">
        <g id="Сгруппировать_1282" transform="translate(46.589)">
            <g id="Сгруппировать_1281">
                <path id="Контур_1350" d="M69.436 17.177l-2.483-6.318a10.252 10.252 0 0 0-7.419-9.7V.82a.82.82 0 0 0-.82-.82h-3.849a.82.82 0 0 0-.82.82v.328a10.267 10.267 0 0 0-3.324 18.107v7.925a.82.82 0 0 0 .82.82h10.422a.82.82 0 0 0 .82-.82V24.6h1.167a2.847 2.847 0 0 0 1.091-.217 2.126 2.126 0 0 0 .331.026h1.59a2.125 2.125 0 0 0 2.123-2.123v-.709a2.125 2.125 0 0 0-2.123-2.123h-.138v-.825l1.989-.344a.82.82 0 0 0 .623-1.108zM55.686 2.485a8.536 8.536 0 0 1 2.208.005v6.541h-2.208zm1.1 8.186a3.986 3.986 0 1 1-3.964 3.986 3.979 3.979 0 0 1 3.967-3.986zm5.173 12.288a.82.82 0 0 0-.82.82v2.58h-8.777v-7.526a.82.82 0 0 0-.362-.679 8.628 8.628 0 0 1 2.045-15.289v6.888a5.63 5.63 0 0 0 2.745 10.531 5.567 5.567 0 0 0 3.657-1.366l2.853 2.2a2.123 2.123 0 0 0-.05.457v.709a2.113 2.113 0 0 0 .11.673zm5-1.864a.483.483 0 0 1 .482.482v.709a.483.483 0 0 1-.482.482h-1.59a.483.483 0 0 1-.482-.482v-.709a.483.483 0 0 1 .482-.482zm-1.1-3.964a.82.82 0 0 0-.68.808v1.524a2.107 2.107 0 0 0-.937.316l-2.728-2.105a5.635 5.635 0 0 0-1.985-7.92V2.877a8.612 8.612 0 0 1 5.78 8.14.82.82 0 0 0 .057.3l2.171 5.523z"  transform="translate(-46.589)"/>
            </g>
        </g>
        <g id="Сгруппировать_1284" transform="translate(54.045 11.913)">
            <g id="Сгруппировать_1283">
                <path id="Контур_1351" d="M185.672 217.841a2.744 2.744 0 1 0 2.744 2.744 2.748 2.748 0 0 0-2.744-2.744zm0 3.848a1.1 1.1 0 1 1 1.1-1.1 1.105 1.105 0 0 1-1.1 1.1z" transform="translate(-182.927 -217.841)"/>
            </g>
        </g>
    </g>
</svg>
