<svg xmlns="http://www.w3.org/2000/svg" width="28" height="28" viewBox="0 0 28 28">
    <path d="M28 3.281v21.438A3.285 3.285 0 0 1 24.719 28h-13.18a3.285 3.285 0 0 1-3.281-3.281v-4.375h2.188v4.375a1.1 1.1 0 0 0 1.094 1.094h13.18a1.1 1.1 0 0 0 1.094-1.094V3.281a1.1 1.1 0 0 0-1.094-1.094H11.539a1.1 1.1 0 0 0-1.094 1.094v4.375H8.258V3.281A3.285 3.285 0 0 1 11.539 0h13.18A3.285 3.285 0 0 1 28 3.281zM11.633 17.609l1.547 1.547L18.336 14 13.18 8.844l-1.547 1.547 2.516 2.516H0v2.188h14.148zm0 0"/>
</svg>
