<svg width="64" height="64" viewBox="0 0 64 64" fill="none" xmlns="http://www.w3.org/2000/svg">
<path d="M24.1638 31.089V28.4182L30.0316 25.2212V22.1457C30.0316 22.1457 28.7367 21.134 28.7367 20.6079C28.7367 20.0818 28.7367 15.4685 28.7367 15.4685C28.7367 15.4685 29.3032 13 32.5001 13C35.6971 13 36.2232 15.4685 36.2232 15.4685C36.2232 15.4685 36.2232 19.9604 36.2232 20.6079C36.2232 21.2554 34.8877 22.1457 34.8877 22.1457L35.0901 25.2212L40.8769 28.4182V31.089" stroke="white" stroke-width="1.21403" stroke-linecap="round" stroke-linejoin="round"/>
<path d="M10 51.4037V48.7329L15.8678 45.5359V42.4604C15.8678 42.4604 14.5728 41.4487 14.5728 40.9226C14.5728 40.3965 14.5728 35.7832 14.5728 35.7832C14.5728 35.7832 15.1394 33.3147 18.3363 33.3147C21.5333 33.3147 22.0594 35.7832 22.0594 35.7832C22.0594 35.7832 22.0594 40.2751 22.0594 40.9226C22.0594 41.5701 20.7239 42.4604 20.7239 42.4604L20.9263 45.5359L26.7131 48.7329V51.4037" stroke="white" stroke-width="1.21403" stroke-linecap="round" stroke-linejoin="round"/>
<path d="M38.2869 51.4037V48.7329L44.1547 45.5359V42.4604C44.1547 42.4604 42.8597 41.4487 42.8597 40.9226C42.8597 40.3965 42.8597 35.7832 42.8597 35.7832C42.8597 35.7832 43.4263 33.3147 46.6232 33.3147C49.8201 33.3147 50.3462 35.7832 50.3462 35.7832C50.3462 35.7832 50.3462 40.2751 50.3462 40.9226C50.3462 41.5701 49.0108 42.4604 49.0108 42.4604L49.2131 45.5359L55 48.7329V51.4037" stroke="white" stroke-width="1.21403" stroke-linecap="round" stroke-linejoin="round"/>
<path d="M32.4995 39.9918C33.8125 39.9918 34.8871 38.9364 34.8871 37.6219C34.8871 36.3073 33.8125 35.2519 32.4995 35.2519C31.1866 35.2519 30.1119 36.3073 30.1119 37.6219C30.1119 38.9364 31.1866 39.9918 32.4995 39.9918Z" stroke="white" stroke-width="1.21403" stroke-linecap="round" stroke-linejoin="round"/>
</svg>
