<svg width="64" height="64" viewBox="0 0 64 64" fill="none" xmlns="http://www.w3.org/2000/svg">
<path d="M11.5797 38.8746V35.9072H21.6594V38.8746V32.6101M21.6594 32.6101C23.6364 32.6101 25.2391 31.0075 25.2391 29.0304C25.2391 27.0534 23.6364 25.4507 21.6594 25.4507M21.6594 32.6101C19.6824 32.6101 18.0797 31.0075 18.0797 29.0304C18.0797 27.0534 19.6824 25.4507 21.6594 25.4507M21.6594 25.4507V21.9181H32.0452M42.4311 25.4507V21.9181H32.0452M42.4311 25.4507C40.4541 25.4507 38.8514 27.0534 38.8514 29.0304C38.8514 31.0075 40.4541 32.6101 42.4311 32.6101M42.4311 25.4507C44.4081 25.4507 46.0108 27.0534 46.0108 29.0304C46.0108 31.0075 44.4081 32.6101 42.4311 32.6101M32.0452 21.9181V18.8566V25.4507M32.0452 25.4507C30.0682 25.4507 28.4655 27.0534 28.4655 29.0304C28.4655 31.0075 30.0682 32.6101 32.0452 32.6101C34.0223 32.6101 35.6249 31.0075 35.6249 29.0304C35.6249 27.0534 34.0223 25.4507 32.0452 25.4507ZM42.4311 32.6101V35.4362M42.4311 35.4362H32.0452V38.8746M42.4311 35.4362V39.063M42.4311 35.4362H52.605V39.063M42.4311 39.063C40.4541 39.063 38.8514 40.6657 38.8514 42.6427C38.8514 44.6198 40.4541 46.2224 42.4311 46.2224C44.4081 46.2224 46.0108 44.6198 46.0108 42.6427C46.0108 40.6657 44.4081 39.063 42.4311 39.063ZM52.605 39.063C50.628 39.063 49.0253 40.6657 49.0253 42.6427C49.0253 44.6198 50.628 46.2224 52.605 46.2224C54.582 46.2224 56.1847 44.6198 56.1847 42.6427C56.1847 40.6657 54.582 39.063 52.605 39.063ZM15.1594 42.6427C15.1594 44.6198 13.5567 46.2224 11.5797 46.2224C9.60269 46.2224 8 44.6198 8 42.6427C8 40.6657 9.60269 39.063 11.5797 39.063C13.5567 39.063 15.1594 40.6657 15.1594 42.6427ZM25.2391 42.6427C25.2391 44.6198 23.6364 46.2224 21.6594 46.2224C19.6824 46.2224 18.0797 44.6198 18.0797 42.6427C18.0797 40.6657 19.6824 39.063 21.6594 39.063C23.6364 39.063 25.2391 40.6657 25.2391 42.6427ZM32.0452 39.063C30.0682 39.063 28.4655 40.6657 28.4655 42.6427C28.4655 44.6198 30.0682 46.2224 32.0452 46.2224C34.0223 46.2224 35.6249 44.6198 35.6249 42.6427C35.6249 40.6657 34.0223 39.063 32.0452 39.063ZM32.0452 11.5557C30.0682 11.5557 28.4655 13.1584 28.4655 15.1354C28.4655 17.1124 30.0682 18.7151 32.0452 18.7151C34.0223 18.7151 35.6249 17.1124 35.6249 15.1354C35.6249 13.1584 34.0223 11.5557 32.0452 11.5557Z" stroke="white" stroke-width="1.41304" stroke-linecap="round" stroke-linejoin="round"/>
</svg>
