<svg width="64" height="64" viewBox="0 0 64 64" fill="none" xmlns="http://www.w3.org/2000/svg">
<path d="M8.68848 15.6719C8.68848 14.0242 10.0242 12.6885 11.6719 12.6885H51.3281C52.9758 12.6885 54.3115 14.0242 54.3115 15.6719V20.8584V47.4336C54.3115 49.0813 52.9758 50.417 51.3281 50.417H11.6719C10.0242 50.417 8.68848 49.0813 8.68848 47.4336V20.8584V15.6719Z" stroke="white" stroke-width="1.37695"/>
<path d="M19.1992 45.6896H15.8486C15.8486 45.6896 15.4355 44.6798 15.4355 43.4406C15.4355 42.2013 15.8486 41.2374 15.8486 41.2374H18.9238C18.9238 41.2374 18.9238 40.09 19.6123 38.4835C20.3008 36.8771 20.9434 36.3722 20.9434 36.3722L18.9238 33.8478C18.9238 33.8478 18.9238 33.1134 20.1631 31.8741C21.4023 30.6349 22.1367 30.6349 22.1367 30.6349L24.4775 32.7003C24.4775 32.7003 25.2578 31.92 26.7036 31.2775C28.1494 30.6349 28.9297 30.6349 28.9297 30.6349V27.6974C28.9297 27.6974 29.0215 27.0548 31.4082 27.0548C33.7949 27.0548 33.7949 27.6974 33.7949 27.6974V30.6349C33.7949 30.6349 34.8506 30.6808 36.2275 31.2775C37.6045 31.8741 38.3848 32.7003 38.3848 32.7003L40.542 30.6349C40.542 30.6349 41.5977 30.7267 42.7451 31.8741C43.8926 33.0216 44.0303 33.8478 44.0303 33.8478L42.0566 36.3722C42.0566 36.3722 42.9746 37.2443 43.5024 38.5294C44.0303 39.8146 44.0303 41.2374 44.0303 41.2374H47.1973C47.1973 41.2374 47.5645 41.9259 47.5645 43.4635C47.5645 45.0011 47.1973 45.6896 47.1973 45.6896H43.2959" stroke="white" stroke-width="1.37695" stroke-linecap="round" stroke-linejoin="round"/>
<path fill-rule="evenodd" clip-rule="evenodd" d="M37.4549 46.424C37.9888 45.458 38.2927 44.3471 38.2927 43.1652C38.2927 39.4389 35.272 36.4181 31.5457 36.4181C27.8193 36.4181 24.7986 39.4389 24.7986 43.1652C24.7986 44.3471 25.1025 45.458 25.6364 46.424H24.1017C23.6643 45.4265 23.4216 44.3242 23.4216 43.1652C23.4216 38.6784 27.0589 35.0411 31.5457 35.0411C36.0324 35.0411 39.6697 38.6784 39.6697 43.1652C39.6697 44.3242 39.427 45.4265 38.9896 46.424H37.4549Z" fill="white"/>
<circle cx="12.8652" cy="16.8652" r="1.00977" fill="white"/>
<circle cx="15.8945" cy="16.8652" r="1.00977" fill="white"/>
<circle cx="18.9238" cy="16.8652" r="1.00977" fill="white"/>
</svg>
