<svg width="64" height="64" viewBox="0 0 64 64" fill="none" xmlns="http://www.w3.org/2000/svg">
<path d="M20.4587 19.0894L13.855 16.4127L8.06729 33.3641L14.6709 36.0409L20.4587 19.0894ZM20.4587 19.0894C20.8834 19.4024 22.0562 19.8405 23.3495 19.0894C24.6428 18.3384 27.4386 18.7765 28.6748 19.0894L40.0388 23.0956C40.118 23.6028 40.2289 25.1306 39.278 26.4239C38.327 27.7172 36.5361 27.5968 35.8546 27.47L30.8145 25.8058C30.4024 26.836 29.1408 29.0961 27.391 29.8949C25.2038 30.8934 20.9721 30.5606 20.0211 29.8949" stroke="white" stroke-width="1.42643" stroke-linecap="round" stroke-linejoin="round"/>
<path d="M48.4984 34.8873L48.6849 35.2679L55.0723 32.1375L47.8366 17.3737L41.4492 20.5042L48.4984 34.8873ZM48.4984 34.8873C47.0574 35.8541 43.9377 38.1491 42.9867 39.5945C42.0358 41.04 32.3519 45.6806 27.6288 47.8203C27.1375 47.9312 26.0312 47.9249 25.5367 47.012C24.9186 45.8708 25.5367 44.7772 26.0122 44.587C26.3925 44.4349 30.7986 42.1463 32.9541 41.021L22.874 46.061C22.4619 46.0452 21.5332 45.8709 21.1148 45.3003C20.5917 44.587 20.4966 43.1607 21.1148 42.6376C21.6092 42.2192 27.7873 39.1984 30.8145 37.7402L20.1162 43.0656C19.6249 43.0498 18.5472 42.8184 18.1668 42.0195C17.6913 41.021 17.8815 40.2604 18.1668 39.9274C18.395 39.6611 25.0454 36.4564 28.342 34.8873L18.7374 39.0716C18.6264 39.135 18.2429 39.0145 17.5962 38.0255C16.7879 36.7893 17.5962 35.6486 18.1668 35.2679C18.6232 34.9634 21.4951 33.6828 22.874 33.0806" stroke="white" stroke-width="1.42643" stroke-linecap="round" stroke-linejoin="round"/>
</svg>
