<?xml version="1.0" encoding="utf-8"?>
<!-- Generator: Adobe Illustrator 19.2.1, SVG Export Plug-In . SVG Version: 6.00 Build 0)  -->
<svg version="1.1" id="Слой_1" xmlns="http://www.w3.org/2000/svg" xmlns:xlink="http://www.w3.org/1999/xlink" x="0px" y="0px"
	 viewBox="0 0 321 530" style="enable-background:new 0 0 321 530;" xml:space="preserve">
<style type="text/css">
	.st0{fill:#45EAE1;}
	.st1{fill:#38B5E8;}
	.st2{fill:#38B6E8;}
	.st3{fill:#339EEC;}
	.st4{fill:#3298ED;}
	.st5{fill:#3092EE;}
	.st6{fill:#2B7FEF;}
	.st7{fill:#2157F4;}
	.st8{fill:#2562F4;}
	.st9{fill:none;stroke:#000000;stroke-linecap:round;stroke-linejoin:round;}
</style>
<circle class="st0" cx="128" cy="6" r="3"/>
<circle class="st0" cx="133" cy="19" r="3"/>
<circle class="st0" cx="136" cy="32" r="3"/>
<circle class="st0" cx="136" cy="45" r="3"/>
<circle class="st0" cx="132" cy="58" r="3"/>
<circle class="st0" cx="121" cy="71" r="3"/>
<circle class="st0" cx="104" cy="87" r="6"/>
<circle class="st1" cx="88" cy="99" r="3"/>
<circle class="st1" cx="75" cy="112" r="3"/>
<circle class="st1" cx="63" cy="125" r="3"/>
<circle class="st1" cx="53" cy="138" r="3"/>
<circle class="st1" cx="44" cy="151" r="3"/>
<circle class="st1" cx="35" cy="164" r="3"/>
<circle class="st1" cx="28" cy="177" r="3"/>
<circle class="st1" cx="22" cy="190" r="3"/>
<circle class="st2" cx="17" cy="206" r="6"/>
<circle class="st1" cx="12" cy="222" r="3"/>
<circle class="st1" cx="8" cy="235" r="3"/>
<circle class="st3" cx="6" cy="248" r="3"/>
<circle class="st4" cx="4" cy="264" r="3"/>
<circle class="st5" cx="3" cy="277" r="3"/>
<circle class="st5" cx="3" cy="290" r="3"/>
<circle class="st5" cx="4" cy="303" r="3"/>
<circle class="st5" cx="5" cy="316" r="3"/>
<circle class="st6" cx="7" cy="332" r="6"/>
<circle class="st6" cx="10" cy="348" r="3"/>
<circle class="st6" cx="14" cy="361" r="3"/>
<circle class="st6" cx="19" cy="374" r="3"/>
<circle class="st6" cx="24" cy="387" r="3"/>
<circle class="st6" cx="30" cy="400" r="3"/>
<circle class="st6" cx="38" cy="413" r="3"/>
<circle class="st6" cx="45" cy="426" r="3"/>
<circle class="st6" cx="53" cy="439" r="3"/>
<circle class="st7" cx="66" cy="455" r="6"/>
<circle class="st8" cx="81" cy="468" r="3"/>
<circle class="st8" cx="95" cy="479" r="3"/>
<circle class="st8" cx="109" cy="488" r="3"/>
<circle class="st8" cx="122" cy="496" r="3"/>
<circle class="st8" cx="135" cy="502" r="3"/>
<circle class="st8" cx="148" cy="509" r="3"/>
<circle class="st8" cx="161" cy="515" r="3"/>
<circle class="st8" cx="175" cy="521" r="3"/>
<circle class="st7" cx="191" cy="523" r="6"/>
<circle class="st8" cx="207" cy="524" r="3"/>
<circle class="st8" cx="220" cy="524" r="3"/>
<circle class="st8" cx="233" cy="524" r="3"/>
<circle class="st8" cx="246" cy="524" r="3"/>
<circle class="st8" cx="259" cy="524" r="3"/>
<circle class="st8" cx="272" cy="524" r="3"/>
<circle class="st8" cx="285" cy="524" r="3"/>
<circle class="st8" cx="298" cy="524" r="3"/>
<circle class="st7" cx="315" cy="524" r="6"/>
<path class="st9" d="M125.7,1.7c5.8,8.8,12.3,22,11,37.3c-0.7,24.8-32,48.3-32,48.3C51.3,125,25,182.8,16,208.3
	C-2.5,253.8,5.6,316,7.3,332.7c2.2,21.2,18.4,74.8,58.7,122C99.8,491,166.4,521,192.3,524c44.9,0,108.7,0,123.3,0"/>
</svg>
