<svg xmlns="http://www.w3.org/2000/svg" viewBox="0 0 321 531">
		<circle class="st0" cx="128" cy="7" r="3" />
		<circle class="st0" cx="133" cy="20" r="3" />
		<circle class="st0" cx="136" cy="33" r="3" />
		<circle class="st0" cx="136" cy="46" r="3" />
		<circle class="st0" cx="132" cy="59" r="3" />
		<circle class="st0" cx="121" cy="72" r="3" />
		<circle id="1" class="change st0" cx="104" cy="88" r="6" />
		<circle class="st1" cx="88" cy="100" r="3" />
		<circle class="st1" cx="75" cy="113" r="3" />
		<circle class="st1" cx="63" cy="126" r="3" />
		<circle class="st1" cx="53" cy="139" r="3" />
		<circle class="st1" cx="44" cy="152" r="3" />
		<circle class="st1" cx="35" cy="165" r="3" />
		<circle class="st1" cx="28" cy="178" r="3" />
		<circle class="st1" cx="22" cy="191" r="3" />
		<circle id="2" class="change st2" cx="17" cy="207" r="6" />
		<circle class="st1" cx="12" cy="223" r="3" />
		<circle class="st1" cx="8" cy="236" r="3" />
		<circle class="st3" cx="6" cy="249" r="3" />
		<circle class="st4" cx="4" cy="265" r="3" />
		<circle class="st5" cx="3" cy="278" r="3" />
		<circle class="st5" cx="3" cy="291" r="3" />
		<circle class="st5" cx="4" cy="304" r="3" />
		<circle class="st5" cx="5" cy="317" r="3" />
		<circle id="3" class="change st6" cx="7" cy="333" r="6" />
		<circle class="st6" cx="10" cy="349" r="3" />
		<circle class="st6" cx="14" cy="362" r="3" />
		<circle class="st6" cx="19" cy="375" r="3" />
		<circle class="st6" cx="24" cy="388" r="3" />
		<circle class="st6" cx="30" cy="401" r="3" />
		<circle class="st6" cx="38" cy="414" r="3" />
		<circle class="st6" cx="45" cy="427" r="3" />
		<circle class="st6" cx="53" cy="440" r="3" />
		<circle id="4" class="change st7" cx="66" cy="456" r="6" />
		<circle class="st8" cx="81" cy="469" r="3" />
		<circle class="st8" cx="95" cy="480" r="3" />
		<circle class="st8" cx="109" cy="489" r="3" />
		<circle class="st8" cx="122" cy="497" r="3" />
		<circle class="st8" cx="135" cy="503" r="3" />
		<circle class="st8" cx="148" cy="510" r="3" />
		<circle class="st8" cx="161" cy="516" r="3" />
		<circle class="st8" cx="175" cy="522" r="3" />
		<circle id="5" class="change st7" cx="191" cy="524" r="6" />
		<circle class="st8" cy="525" r="3" cx="210"/>
		<circle class="st8" cy="525" r="3" cx="227"/>
		<circle class="st8" cy="525" r="3" cx="244"/>
		<circle class="st8" cy="525" r="3" cx="262"/>
		<circle class="st8" cy="525" r="3" cx="280"/>
		<circle class="st8" cy="525" r="3" cx="296"/>
		<circle id="6" class="change st7" cx="315" cy="525" r="6" />
</svg>
