<svg xmlns="http://www.w3.org/2000/svg" xmlns:xlink="http://www.w3.org/1999/xlink" width="140" height="50" viewBox="0 0 140 50">
    <defs>
        <linearGradient id="linear-gradient" x1=".116" x2="1.06" y1=".645" y2=".203" gradientUnits="objectBoundingBox">
            <stop offset="0" stop-color="#1a36f9"/>
            <stop offset=".101" stop-color="#1c3ef7"/>
            <stop offset=".266" stop-color="#2157f4"/>
            <stop offset=".474" stop-color="#2b7fef"/>
            <stop offset=".718" stop-color="#38b6e8"/>
            <stop offset=".988" stop-color="#49fbdf"/>
            <stop offset="1" stop-color="#4affdf"/>
        </linearGradient>
        <linearGradient id="linear-gradient-2" x1="-1697.867" x2="1698.328" y1="736.83" y2="-735.597" xlink:href="#linear-gradient"/>
        <linearGradient id="linear-gradient-3" x1=".998" x2="-1.317" y1=".212" y2="1.215" gradientUnits="objectBoundingBox">
            <stop offset="0" stop-color="#1a36f9"/>
            <stop offset=".083" stop-color="#2461f3"/>
            <stop offset=".251" stop-color="#38b5e8"/>
            <stop offset=".371" stop-color="#45eae1"/>
            <stop offset=".428" stop-color="#4affdf"/>
        </linearGradient>
        <style>
            .cls-5{fill:#101010}
        </style>
    </defs>
    <g id="logo">
        <g id="Сгруппировать_1311">
            <path id="Контур_1372" fill="url(#linear-gradient)" d="M42.949.479c-4.049-1.048-12.36-.373-21.612 2C8.785 5.692-.746 10.806.046 13.9a1.619 1.619 0 0 0 .443.746 2.5 2.5 0 0 0 .258.225c8.666 7.452 15.991 18.257 14.567 32.875l-.064.6a1.467 1.467 0 0 0 1.989 1.543l.082-.037a.892.892 0 0 0 .095-.052c.107-.064.217-.131.327-.2C42.689 34.151 45.256 10.241 45.485 3.867A3.375 3.375 0 0 0 42.949.479z"/>
        </g>
        <g id="Сгруппировать_1312" transform="translate(.63 12.086)">
            <path id="Контур_1374" fill="url(#linear-gradient-3)" d="M18.876 71.3c-.11.07-.22.138-.327.2a.885.885 0 0 1-.094.052l-.083.037a1.467 1.467 0 0 1-1.989-1.543l.064-.6c1.424-14.618-6.019-25.518-14.684-32.97a5.792 5.792 0 0 0 1.2.667c.07.03.144.055.217.079 3.807 1.271 12.467.648 22.159-1.837 1.414-.363 2.793-.748 4.122-1.155 3.691-1.131 4.773-.122 4.886 3.282.479 14.666-9.308 29.828-15.471 33.788z" transform="translate(-1.762 -33.786)"/>
        </g>
        <g id="Сгруппировать_1313" transform="translate(58.131 7.066)">
            <path id="Контур_1375" d="M249.834 36.95a5.515 5.515 0 1 0-5.515 5.515 5.515 5.515 0 0 0 5.515-5.515zm-5.515 3.434a3.434 3.434 0 1 1 3.434-3.434 3.434 3.434 0 0 1-3.434 3.434z" class="cls-5" transform="translate(-211.505 -27.255)"/>
            <path id="Контур_1376" d="M295.4 40.945l.347 1.314h1.7v-10.65h-1.7l-.348 1.345a4.573 4.573 0 0 0-3.5-1.519 5.515 5.515 0 0 0 0 11.03 4.573 4.573 0 0 0 3.501-1.52zm-6.939-3.995a3.434 3.434 0 1 1 3.434 3.434 3.434 3.434 0 0 1-3.436-3.434z" class="cls-5" transform="translate(-242.06 -27.255)"/>
            <path id="Контур_1377" d="M166.439 36.784a3.353 3.353 0 0 1 .864-2.326 2.853 2.853 0 0 1 2.2-.956 2.807 2.807 0 0 1 2.178.858 3.3 3.3 0 0 1 .777 2.293v5.684h2.142v-5.706a5.227 5.227 0 0 0-1.278-3.723 4.322 4.322 0 0 0-3.274-1.352 4.638 4.638 0 0 0-3.567 1.7l-.095.107-.364-1.653h-1.7v10.627h2.119z" class="cls-5" transform="translate(-163.667 -27.334)"/>
            <path id="Прямоугольник_1650" d="M0 0H2.119V10.649H0z" class="cls-5" transform="translate(13.41 4.354)"/>
            <path id="Прямоугольник_1651" d="M0 0H2.119V14.805H0z" class="cls-5" transform="translate(40.391 .198)"/>
            <path id="Контур_1378" d="M364.345 31.982l-1.594 3.855L361 40.538l-1.95-5.133-1.421-3.422h-2.347l4.518 10.67h2.378l4.5-10.671z" class="cls-5" transform="translate(-286.313 -27.607)"/>
            <path id="Контур_1379" d="M173.2 83.179a4.472 4.472 0 0 0 .708-2.512 4.972 4.972 0 0 0-1.291-3.289l-.034-.04 1.2-1.552-1-.77-1.683 1.045a5.032 5.032 0 0 0-2.86-.729 6.174 6.174 0 0 0-4.052 1.411 4.836 4.836 0 0 0-1.7 3.924 4.979 4.979 0 0 0 1.568 3.872c1.043.942 3.087 1.269 4.181 1.42a6.38 6.38 0 0 1 2.482.62 2.009 2.009 0 0 1 .952 1.77 1.844 1.844 0 0 1-1.054 1.685 4.95 4.95 0 0 1-2.424.573 4.469 4.469 0 0 1-2.482-.718 2.118 2.118 0 0 1-1-1.872H162.6a4.068 4.068 0 0 0 1.45 3.383 6.332 6.332 0 0 0 4.15 1.259 7.01 7.01 0 0 0 4-1.143 3.629 3.629 0 0 0 1.681-3.17c0-1.66-.938-2.819-2.787-3.446l-.16-.054.157-.06a4.274 4.274 0 0 0 2.109-1.607zm-2.42-.107a3.581 3.581 0 0 1-2.533.941 3.827 3.827 0 0 1-2.575-.885 3.463 3.463 0 0 1 .023-4.957 3.878 3.878 0 0 1 2.552-.874 3.676 3.676 0 0 1 2.51.908 3.128 3.128 0 0 1 1.033 2.461 3.16 3.16 0 0 1-1.013 2.406z" class="cls-5" transform="translate(-162.495 -55.246)"/>
            <path id="Контур_1380" d="M266.634 82.341a3.408 3.408 0 0 1-.854 2.347 3.083 3.083 0 0 1-4.377.087 3.272 3.272 0 0 1-.789-2.282V76.81h-2.119v5.705a5.341 5.341 0 0 0 1.235 3.723 4.185 4.185 0 0 0 3.23 1.351 4.7 4.7 0 0 0 3.653-1.72l.1-.108.333 1.676h1.711V76.81h-2.119z" class="cls-5" transform="translate(-224.152 -56.398)"/>
            <path id="Контур_1381" d="M200.645 22.43a1.34 1.34 0 1 0-1.34-1.34 1.34 1.34 0 0 0 1.34 1.34z" class="cls-5" transform="translate(-186.137 -19.751)"/>
            <path id="Контур_1382" d="M299.368 76.247a4.572 4.572 0 0 0-3.5 1.52l-.347-1.314h-1.7v15.584h2.007v-6.325a4.572 4.572 0 0 0 3.546 1.564 5.515 5.515 0 0 0 0-11.03zm0 8.949a3.434 3.434 0 1 1 3.434-3.434 3.434 3.434 0 0 1-3.434 3.438z" class="cls-5" transform="translate(-246.837 -56.036)"/>
            <path id="Контур_1383" d="M328.214 31.435a5.515 5.515 0 1 0 5.085 7.653h-2.4a3.427 3.427 0 0 1-6.016-1.334h8.785a5.476 5.476 0 0 0-5.45-6.319zm-3.294 4.548a3.432 3.432 0 0 1 6.587 0z" class="cls-5" transform="translate(-265.388 -27.255)"/>
            <path id="Контур_1384" d="M215.541 30.062l4.7 5.048h2.632l-5.373-5.618 4.746-4.988h-2.632l-4.07 4.359v-8.557H213.4v14.8h2.141z" class="cls-5" transform="translate(-195.189 -20.107)"/>
            <path id="Контур_1385" d="M202.572 77.767l-.347-1.314h-1.7v10.6h2.007v-5.291a3.212 3.212 0 0 1 3.185-3.434 3.518 3.518 0 0 1 1.668.417l.793-2.082a5.5 5.5 0 0 0-2.1-.416 4.573 4.573 0 0 0-3.506 1.52z" class="cls-5" transform="translate(-186.92 -56.036)"/>
            <path id="Контур_1386" d="M228.034 76.247a5.515 5.515 0 1 0 5.515 5.515 5.515 5.515 0 0 0-5.515-5.515zm0 8.949a3.434 3.434 0 1 1 3.434-3.434 3.434 3.434 0 0 1-3.434 3.438z" class="cls-5" transform="translate(-201.046 -56.036)"/>
        </g>
    </g>
</svg>
