<svg xmlns="http://www.w3.org/2000/svg" width="120" height="30" viewBox="0 0 120 30">
    <g>
        <path d="M36.595 19.567a3.974 3.974 0 0 0-2.78 1.034l-.129-.841H32.2V30.3h1.81v-3.492a3.814 3.814 0 0 0 2.586.905 4.075 4.075 0 1 0 0-8.146zm-.194 6.4a2.331 2.331 0 1 1 2.457-2.328 2.242 2.242 0 0 1-2.458 2.329zm7.759-1.228v-4.978h-1.81v7.759h1.487l4.263-4.979v4.979h1.81v-7.759h-1.484zm-34.139-7.758h-7.5v1.1a26.012 26.012 0 0 1-.905 7.694H0v3.815h1.81v-2.07h8.018v2.069h1.81v-3.815h-1.617v-8.793zm-2 8.793h-4.4a24.716 24.716 0 0 0 .841-6.4v-.647h3.555v7.047zm53.211.129h-2.849v-6.142h-1.81V25.9h-2.845v-6.139h-1.81v7.759h11.056v-7.759h-1.81V25.9zm13.448-6.142v7.759h1.81v-6.078h3.879v6.142h1.81v-7.758h-7.5zM19.4 23.64a1.869 1.869 0 0 0 1.1-1.81 2.039 2.039 0 0 0-2.2-2.069h-5.11v7.759h5.3a2.039 2.039 0 0 0 2.2-2.069 1.883 1.883 0 0 0-1.29-1.811zM15 21.377h2.716a.778.778 0 1 1 0 1.552H15zm2.909 4.59H15v-1.551h2.909a.778.778 0 1 1 0 1.552zm51.013-6.4a4.081 4.081 0 1 0 4.332 4.073 4.046 4.046 0 0 0-4.332-4.073zm0 6.4a2.331 2.331 0 1 1 2.457-2.328 2.276 2.276 0 0 1-2.457 2.329zm-42.607-6.4a3.991 3.991 0 0 0-4.267 4.073 4.065 4.065 0 0 0 4.4 4.073 4.192 4.192 0 0 0 4.073-2.392h-2.138a2.639 2.639 0 0 1-1.94.711 2.415 2.415 0 0 1-2.457-1.746h6.659c0-.194.065-.453.065-.647v-.388a4.3 4.3 0 0 0-4.396-3.684zm-2.392 3.3a2.284 2.284 0 0 1 2.328-1.552 2.45 2.45 0 0 1 2.392 1.552zM65.883.3h-7.112v10.539h7.047V.3zM55.215 3.015H48.1v10.539h7.047V3.015zM44.612.3h-7.048v10.539h7.047zm-10.6 2.715H26.9v10.539h7.047V3.015zM23.34.3h-7.112v10.539h7.047V.3z" transform="translate(-720 -984) translate(739 983.7)"/>
    </g>
</svg>
