<svg xmlns="http://www.w3.org/2000/svg" width="120" height="30" viewBox="0 0 120 30">
    <g>
        <g>
            <path d="M71.977 3.826h1.235A2.2 2.2 0 0 1 75.228 1.9v6.815l-1.814.242v1.3l1.814.242v4.193c0 2.016.272 4.218-.892 5.967h5.392c-1.336-1.567-1.008-3.85-1.008-5.8V10.5l1.814-.242v-1.3l-1.814-.242V1.9a2.157 2.157 0 0 1 2.016 1.925h1.215l.3-3.316H71.67z" transform="translate(0 4.702) translate(10) translate(-35.551 -.254)"/>
            <path d="M139.511 19.492c-2.384 1.85-6.254 1.462-7.65-1.411-.569-1.164-.388-2.646-.388-3.911V6.762c0-1.764-.262-3.679.978-5.115a5.221 5.221 0 0 1 7.68.071c1.245 1.451.983 3.346.983 5.12v7.9c0 1.816 0 3.499-1.603 4.754zm-1.895-16.47c0-.963-.842-2.212-1.93-1.582a1.984 1.984 0 0 0-.716 1.819v12.554c1.512-.5 2.348.474 2.066 1.467-.922-.791-2.228-.262-1.9 1.008.277 1.114 1.971 1.008 2.354-.04a10.562 10.562 0 0 0 .126-3.311z" transform="translate(0 4.702) translate(10) translate(-65.201)"/>
            <path d="M162.383 1.133C160-.722 156.128-.334 154.732 2.519a9.113 9.113 0 0 0-.388 3.911v7.428c0 1.764-.257 3.679.978 5.115A5.221 5.221 0 0 0 163 18.9c1.245-1.451.983-3.346.983-5.115V5.88c.002-1.814.002-3.497-1.6-4.747zm-1.895 16.45c0 .963-.842 2.212-1.93 1.582a1.991 1.991 0 0 1-.716-1.819V4.792c2.016.595 2.369-1.139 2.016-1.653a1.025 1.025 0 0 1-1.839-.832c.166-1.446 1.971-1.008 2.354.045a10.525 10.525 0 0 1 .126 3.306v11.924z" transform="translate(0 4.702) translate(10) translate(-76.547)"/>
            <path d="M187.109 3.549a4.878 4.878 0 0 0-3.775-3.024 15.22 15.22 0 0 0-2.091-.05h-4.773a6.884 6.884 0 0 1 .892 4.032v10.981c0 1.779.131 3.578-.892 5.12h4.395c2.061 0 4.062 0 5.493-1.794 1.3-1.633 1.114-3.613 1.114-5.544V9.037c0-1.718.287-3.855-.363-5.488zm-3.135 12.015c0 1.149-.539 3.966-2.212 3.644-.872-.171-.907-1.174-.247-1.668a1.665 1.665 0 0 1 1.436-.1c-.3-1.008-.9-1.749-2.091-1.351V1.846c3.8-.06 3.115 4.773 3.115 7.363z" transform="translate(0 4.702) translate(10) translate(-87.535 -.229)"/>
            <path d="M11.037 11.367a5.12 5.12 0 0 0-2.6-2.9 4.573 4.573 0 0 0 1.729-5.5C9.434 1.036 7.313.471 5.408.451 3.6.431 1.8.451 0 .451A3.528 3.528 0 0 1 .942 2.7a11.025 11.025 0 0 1 .066 1.472v11.3c0 1.769.207 3.654-.932 5.12a48.641 48.641 0 0 0 6.7-.081 5.04 5.04 0 0 0 4.536-4.536 11.835 11.835 0 0 0-.275-4.608zM4.485 1.792c2.167-.04 2.52 2.016 2.434 3.76-.091 1.94-1.366 2.434-2.434 2.3zM7.635 16.7a4.133 4.133 0 0 1-1.084 2.086c-.423.378-1.351.706-1.749.086a1.1 1.1 0 0 1 .539-1.446 1.885 1.885 0 0 1 1.245 0c-.287-1.008-.9-1.769-2.086-1.351v-6.89c2.172-.055 3.361 2.127 3.351 4.067a15.507 15.507 0 0 1-.222 3.422z" transform="translate(0 4.702) translate(10) translate(0 -.22)"/>
            <path d="M56.52 8.715v5.7c0 1.769.277 4.077-1.285 4.586-1.839.6-2.641-1.265-2.641-3.321V8.715c0-5.544.156-7.086.927-8.2H48.24c.847 1.119.857 2.666.857 8.2v7.025c0 2.117.655 3.865 2.8 4.672 2.3.867 5.156.433 6.164-2.016.59-1.456.363-3.256.363-4.793V8.715c0-5.544 0-7.086.716-8.2h-3.31c.554 1.114.69 2.661.69 8.2z" transform="translate(0 4.702) translate(10) translate(-23.929 -.254)"/>
            <path d="M35.96 18.927a21.126 21.126 0 0 1-1.386-5.176c-.373-1.693-.59-3.649-2.016-4.848a4.4 4.4 0 0 0 2.878-5.135c-.383-2.334-2.49-3.281-4.641-3.311s-3.77 0-5.655 0a5.8 5.8 0 0 1 .937 3.724V15.4c0 1.8.141 3.634-.892 5.2h5.342c-1.1-1.6-.958-4.626-.958-6.819V8.954a5.851 5.851 0 0 0 .665.171c1.426 3.528 1.336 7.459 2.016 9.646.716 2.288 3.215 2.434 4.984 1.3a2.863 2.863 0 0 1-1.274-1.144zM30.643 7.84a.837.837 0 0 1-.5-1.552c.564-.282.947-.091.832.479.781-.5.2-2.313-1.426-1.784V1.772a2.318 2.318 0 0 1 2.42 2.278c.121 1.008.232 3.674-1.325 3.8z" transform="translate(0 4.702) translate(10) translate(-12.47 -.221)"/>
            <path d="M110 .9a40.307 40.307 0 0 1-1.144 7.363l-1.366 7.247c-.539-2.827-.963-5.68-1.4-8.527-.161-1.068-.323-2.142-.5-3.215a4.206 4.206 0 0 1 .469-3.23h-5.236a8.452 8.452 0 0 1 1.277 4.13 12.19 12.19 0 0 1 .3 3.785l-1.552 7.182c-.534-2.817-.952-5.655-1.391-8.487q-.265-1.663-.5-3.326a4.046 4.046 0 0 1 .5-3.311H94.19c1.366 2.293 1.512 5.105 1.95 7.7l1.633 9.646a9.963 9.963 0 0 1 .212 1.27 3.306 3.306 0 0 1-.554 1.537h5.231a2.62 2.62 0 0 1-.68-1.593 15.541 15.541 0 0 1 .474-2.112l.947-4.228c.307 1.562.62 3.12.927 4.677a11.088 11.088 0 0 1 .348 1.749 3.235 3.235 0 0 1-.559 1.512c1.729 0 3.462.035 5.191-.025a2.459 2.459 0 0 1-.564-2.243l.811-4.223 2.016-10.407a6.305 6.305 0 0 1 1.31-3.241h-2.868z" transform="translate(0 4.702) translate(10) translate(-46.721 -.254)"/>
        </g>
    </g>
</svg>
