<svg xmlns="http://www.w3.org/2000/svg" width="28" height="28" viewBox="0 0 28 28">
    <g id="view">
        <path id="Контур_1357" d="M10.665 312c-5.724 0-10.25 4.7-10.439 4.9a.82.82 0 0 0 0 1.129c.19.2 4.716 4.9 10.439 4.9s10.249-4.7 10.439-4.9a.82.82 0 0 0 0-1.129c-.19-.2-4.716-4.9-10.439-4.9zm-4.807 8.074a17.768 17.768 0 0 1-3.843-2.605 17.769 17.769 0 0 1 3.844-2.606 5.458 5.458 0 0 0 0 5.211zm4.807 1.223a3.828 3.828 0 1 1 3.828-3.828 3.832 3.832 0 0 1-3.828 3.831zm4.807-1.223a5.454 5.454 0 0 0 0-5.211 17.767 17.767 0 0 1 3.845 2.606 17.769 17.769 0 0 1-3.844 2.605z"transform="translate(0 -294.937)"/>
        <path id="Контур_1358" d="M187.556 72.275a4.3 4.3 0 0 1 .741-.8.82.82 0 0 0-.983-1.314 6.415 6.415 0 0 0-2.285 4.148 2.419 2.419 0 1 0 2.526-2.034zm-.137 3.193a.778.778 0 1 1 .778-.778.779.779 0 0 1-.778.778z" transform="translate(-174.882 -66.171)"/>
        <path id="Контур_1359" d="M298.665 70.765v-.01a.944.944 0 0 0-1.823-.1l-.009.028-.85 2.983-.883-2.991-.009-.029a.944.944 0 0 0-1.822.122v.009l-.961 5.326a.82.82 0 1 0 1.615.291l.439-2.431.73 2.476.009.029a.942.942 0 0 0 .895.643.942.942 0 0 0 .893-.652l.009-.028.705-2.473.467 2.445a.82.82 0 1 0 1.611-.308z" transform="translate(-276.307 -66.172)"/>
        <path id="Контур_1360" d="M120.07 0h-17.609A2.464 2.464 0 0 0 100 2.461V12.3a2.464 2.464 0 0 0 2.461 2.461h10.719v2.461a.82.82 0 0 0 1.354.623l3.6-3.084h1.939a2.464 2.464 0 0 0 2.461-2.461V2.461A2.464 2.464 0 0 0 120.07 0zm.82 12.3a.821.821 0 0 1-.82.82h-2.242a.82.82 0 0 0-.534.2l-2.474 2.121v-1.5a.82.82 0 0 0-.82-.82h-11.539a.821.821 0 0 1-.82-.82v-9.84a.821.821 0 0 1 .82-.82h17.609a.821.821 0 0 1 .82.82z" transform="translate(-94.531)"/>
    </g>
</svg>
