<svg xmlns="http://www.w3.org/2000/svg" width="28" height="28" viewBox="0 0 28 28">
    <g>
        <path d="M53.078 9.773V2.461A2.464 2.464 0 0 0 50.617 0H34.1a2.464 2.464 0 0 0-2.461 2.461v7.312A2.465 2.465 0 0 0 30 12.093v10.992a2.465 2.465 0 0 0 1.641 2.32V28h1.641v-2.454h18.156V28h1.641v-2.595a2.465 2.465 0 0 0 1.641-2.32V12.093a2.465 2.465 0 0 0-1.642-2.32zM34.1 1.641h16.517a.821.821 0 0 1 .82.82v7.312a2.465 2.465 0 0 0-1.641 2.32v2.745H34.922v-2.745a2.465 2.465 0 0 0-1.641-2.32V2.461a.821.821 0 0 1 .82-.82zm.82 14.839H49.8v1.64H34.922zm18.156 6.606a.821.821 0 0 1-.82.82h-19.8a.821.821 0 0 1-.82-.82V12.093a.82.82 0 0 1 1.641 0v7.667h18.161v-7.667a.82.82 0 1 1 1.641 0z" transform="translate(-786 -2824) translate(757.6 2824)"/>
    </g>
</svg>
