<svg xmlns="http://www.w3.org/2000/svg" width="16" height="16" viewBox="0 0 16 16">
    <g>
        <path d="M39.511 61H26.323a1.39 1.39 0 0 0-.6.141l7.165 7.165 1.606-1.543 5.621-5.621a1.39 1.39 0 0 0-.604-.142z" transform="translate(0 -59.1) translate(-24.917)"/>
        <path d="M343.5 86.728l-5.29 5.29 5.29 5.29a1.39 1.39 0 0 0 .141-.6V87.33a1.39 1.39 0 0 0-.141-.602z" transform="translate(0 -59.1) translate(-327.644 -24.925)"/>
        <path d="M.141 86.721a1.39 1.39 0 0 0-.141.6V96.7a1.39 1.39 0 0 0 .141.6l5.29-5.29z" transform="translate(0 -59.1) translate(0 -24.918)"/>
        <path d="M34.817 277.211l-1.606 1.544a.469.469 0 0 1-.663 0L31 277.211l-5.29 5.29a1.39 1.39 0 0 0 .6.141H39.5a1.39 1.39 0 0 0 .6-.141z" transform="translate(0 -59.1) translate(-24.91 -209.455)"/>
    </g>
</svg>
