<svg xmlns="http://www.w3.org/2000/svg" width="28" height="28" viewBox="0 0 28 28">
    <g id="contract" transform="translate(-29.4)">
        <path id="Контур_1411" d="M54.789 0H35.1a.82.82 0 0 0-.82.82v20.618h-2.46a.82.82 0 0 0-.82.82V23.9a4.106 4.106 0 0 0 4.1 4.1h17.228a3.285 3.285 0 0 0 3.281-3.281V.82a.82.82 0 0 0-.82-.82zM35.1 26.359a2.464 2.464 0 0 1-2.459-2.459v-.82h16.406v1.641a3.262 3.262 0 0 0 .44 1.641zm18.867-1.641a1.641 1.641 0 0 1-3.281 0v-2.46a.82.82 0 0 0-.82-.82H35.922V1.641h18.047z" />
        <path id="Контур_1412" d="M181.82 93.641h9.844a.82.82 0 0 0 0-1.641h-9.844a.82.82 0 0 0 0 1.641z"  transform="translate(-141.797 -86.969)"/>
        <path id="Контур_1413" d="M181.82 153.641h4.922a.82.82 0 0 0 0-1.641h-4.922a.82.82 0 0 0 0 1.641z"  transform="translate(-141.797 -143.688)"/>
        <path id="Контур_1414" d="M152.4 248.322l1.641-1.641a2.458 2.458 0 0 0 2.121 0l1.641 1.641a.82.82 0 0 0 1.16-1.16l-1.641-1.641a2.461 2.461 0 1 0-4.441 0l-1.641 1.641a.82.82 0 0 0 1.16 1.16zm2.7-4.682a.82.82 0 1 1-.82.82.821.821 0 0 1 .82-.819z"  transform="translate(-113.438 -228.766)"/>
    </g>
</svg>
