<svg xmlns="http://www.w3.org/2000/svg" width="28" height="28" viewBox="0 0 28 28">
    <path d="M26.906 6.016H21a1.094 1.094 0 0 0-1.094 1.094v18.7h-1.859V1.094A1.094 1.094 0 0 0 16.953 0h-5.906a1.094 1.094 0 0 0-1.094 1.094v24.719H8.094V14.766A1.094 1.094 0 0 0 7 13.672H1.094A1.094 1.094 0 0 0 0 14.766v12.14A1.094 1.094 0 0 0 1.094 28h25.812A1.094 1.094 0 0 0 28 26.906V7.109a1.094 1.094 0 0 0-1.094-1.093zm-21 19.8H2.188v-9.957h3.718zm6.235-23.628h3.719v23.625h-3.719zm13.672 23.625h-3.719V8.2h3.719z"/>
</svg>
