<svg xmlns="http://www.w3.org/2000/svg" width="28" height="28.001" viewBox="0 0 28 28.001">
    <g id="hands" transform="translate(-291.365 -338.977)">
        <path id="Контур_1400" d="M304.934 342.715a.651.651 0 0 0 .649-.65v-2.44a.652.652 0 0 0-.651-.649.653.653 0 0 0-.65.65v2.439a.65.65 0 0 0 .651.65z" transform="translate(.382)"/>
        <path id="Контур_1401" d="M319.011 357.913l-.058-.065-1.119-1.149a1.94 1.94 0 0 0-2.228-.361l-1.7-1.692.016-.015a2 2 0 0 0 0-2.823 1.975 1.975 0 0 0-.9-.518 1.95 1.95 0 0 0 .053-.456 2 2 0 0 1-1.434-2.385 3.754 3.754 0 0 1-1.681-3.344 1.989 1.989 0 0 0-1.191-.957 2.06 2.06 0 0 0-.768-.069l-3.592-.676a2.056 2.056 0 0 0-1.776.243.455.455 0 0 0-.045.043 2.027 2.027 0 0 0-2.046.485 2 2 0 0 0-.586 1.412 2.05 2.05 0 0 0 .052.456 2 2 0 0 0-1.447 2.337l.011.049a2 2 0 0 0-1.448 2.332 2.267 2.267 0 0 1-.885 3.106 1.993 1.993 0 0 0 .479.768l.014.014-1.7 1.695a1.95 1.95 0 0 0-2.126.408l-.97.964a1.924 1.924 0 0 0-.01 2.714l1.219 1.213a.65.65 0 1 0 .948-.89.22.22 0 0 0-.026-.027l-1.21-1.2a.63.63 0 0 1 0-.884l.97-.964a.63.63 0 0 1 .751-.1.65.65 0 0 0 .238.2l5.535 5.51a.646.646 0 0 0 .285.289.627.627 0 0 1-.039.842l-.968.965a.639.639 0 0 1-.893 0l-1.212-1.208a.644.644 0 0 0-.458-.193.652.652 0 0 0-.461 1.111l1.213 1.208a1.953 1.953 0 0 0 2.731 0l.97-.965a1.916 1.916 0 0 0 .314-2.314l2.01-2c.2-.207.856-.163 1.441-.123a7.987 7.987 0 0 0 1.413.012l2.164 2.155a1.938 1.938 0 0 0 .362 2.216l.971.965a1.947 1.947 0 0 0 2.732 0l5.881-5.853a1.925 1.925 0 0 0 .212-2.476zm-10.675 2.277l.488-.486a.648.648 0 0 0 .032-.885l-.054-.045-.051-.033a.653.653 0 0 0-.862.052l-.488.486c-.43.428-1.248.372-2.02.321a3.007 3.007 0 0 0-2.483.507l-1.948 1.94-4.9-4.884 1.66-1.65a2 2 0 0 0 2.981-1.656 5232.217 5232.217 0 0 1 3.836-3.816 2 2 0 0 0 1.665-2.968l1.51-1.505a.706.706 0 0 1 .355-.189l.048-.007a.711.711 0 0 1 .519.132.7.7 0 0 1 .076 1.053l-1.029 1.021a.651.651 0 0 0 .461 1.11.645.645 0 0 0 .459-.19l.552-.549a.71.71 0 0 1 .995 0 .7.7 0 0 1 .01.974l-.041.022v.021l-1 1a.65.65 0 0 0 .918.921l.552-.548a.71.71 0 0 1 1 0 .7.7 0 0 1 0 .986l-.957.954a.651.651 0 0 0 .461 1.111.648.648 0 0 0 .459-.192l.476-.473a.711.711 0 0 1 .5-.185.7.7 0 0 1 .5 1.17l-1.234 1.228a.651.651 0 0 0 .92.92l.3-.3 1.629 1.622-4.909 4.884-1.649-1.642a2.2 2.2 0 0 0 .263-.232zm-10.636-7.528a.712.712 0 0 1 .922.063l.551.548a.7.7 0 0 1 0 .986.711.711 0 0 1-1 0l-.544-.539a.7.7 0 0 1 0-.986l.068-.068zm2.474-5.3a.71.71 0 0 1 .843.113l1.989 1.978a.7.7 0 0 1-.993.99l-1.482-1.471-.5-.51a.7.7 0 0 1-.031-.962l.072-.084zm1.285-2.267l.022-.023a.712.712 0 0 1 .843-.081 4.029 4.029 0 0 0 1.115 1.7 4.18 4.18 0 0 0 1.591.99.7.7 0 0 1-.108.966.675.675 0 0 1-.513.16.7.7 0 0 1-.481-.256l-2.47-2.461a.7.7 0 0 1 .004-.998zm-.373 7.263a.718.718 0 0 1-1 0l-1.51-1.5a.7.7 0 0 1 0-.986l.016-.02a.7.7 0 0 1 .973.012l1.518 1.51a.7.7 0 0 1 .006.981zm3.786-7.549l1.463.276-1.232 1.228a3.381 3.381 0 0 1-.768-.571 2.41 2.41 0 0 1-.758-1.124 1.719 1.719 0 0 1 .566.055l.444.085zm13 14.664l-5.872 5.85a.64.64 0 0 1-.892 0l-.969-.965a.625.625 0 0 1 0-.883l5.881-5.853a.641.641 0 0 1 .894 0l.967.963a.629.629 0 0 1-.005.885z" transform="translate(0 .128)"/>
        <path id="Контур_1402" d="M297.834 342.22a.647.647 0 0 0 .46.19.651.651 0 0 0 .46-1.111l-2-1.988a.651.651 0 1 0-.921.92z" class="cls-2" transform="translate(.126 .004)"/>
        <path id="Контур_1403" d="M311.631 342.409h.006a.65.65 0 0 0 .458-.189l2-1.99a.651.651 0 0 0-.461-1.109.647.647 0 0 0-.46.19l-2 1.988a.65.65 0 0 0 .458 1.11z" transform="translate(.58 .004)"/>
        <path id="Контур_1404" d="M294.675 361.856l-.071.072.007.008a.65.65 0 0 0 .995.83.653.653 0 0 0-.011-.92.652.652 0 0 0-.92.01z" class="cls-2" transform="translate(.092 .671)"/>
        <path id="Контур_1405" d="M309.488 357.79h.08a.651.651 0 0 0 .46-1.11.66.66 0 0 0-.758-.119.649.649 0 0 0 .141 1.2z"  transform="translate(.519 .518)"/>
    </g>
</svg>
