<svg xmlns="http://www.w3.org/2000/svg" width="28" height="28" viewBox="0 0 28 28">
   
    <g id="audit" transform="translate(0 -61.706)">
        <path id="Контур_1406" d="M149.39 81.685l-6.262-6.263a7.267 7.267 0 1 0-3.6 3.667l6.23 6.231a2.57 2.57 0 1 0 3.635-3.635zm-16.9-5.221a5.632 5.632 0 1 1 7.964 0 5.64 5.64 0 0 1-7.959.001zm15.735 7.7a.928.928 0 0 1-1.314 0l-5.952-5.954a7.327 7.327 0 0 0 1.3-1.325l5.962 5.964a.931.931 0 0 1 .009 1.311z"  transform="translate(-122.142)"/>
        <path id="Контур_1407" d="M.82 216.588h3.5a.82.82 0 0 0 0-1.641H.82a.82.82 0 0 0 0 1.641z"  transform="translate(0 -141.552)"/>
        <path id="Контур_1408" d="M.82 280.588h4.81a.82.82 0 1 0 0-1.641H.82a.82.82 0 1 0 0 1.641z" transform="translate(0 -202.052)"/>
        <path id="Контур_1409" d="M.82 344.588h8.308a.82.82 0 1 0 0-1.641H.82a.82.82 0 1 0 0 1.641z" transform="translate(0 -262.551)"/>
        <path id="Контур_1410" d="M18.748 406.947H.82a.82.82 0 0 0 0 1.641h17.928a.82.82 0 0 0 0-1.641z"  transform="translate(0 -323.051)"/>
    </g>
</svg>
