<svg xmlns="http://www.w3.org/2000/svg" width="28" height="28" viewBox="0 0 28 28">
    <g>
        <g>
            <path d="M27.153 96.763h-.92V84.076a2.588 2.588 0 1 0-2.929-.96l-3.618 4.936a2.581 2.581 0 0 0-2.132.254l-2.787-2.462a2.586 2.586 0 1 0-4.619.307L6.865 89.9a2.586 2.586 0 1 0-1.948 4.79v2.075H1.639V81.19a.82.82 0 1 0-1.639 0v16.392a.82.82 0 0 0 .82.82h26.333a.819.819 0 1 0 0-1.639zM13.2 87.3a2.579 2.579 0 0 0 .488-.222l2.808 2.48a2.583 2.583 0 0 0 1.582 3.409v3.8H13.2zm6.517 5.667a2.583 2.583 0 0 0 1.29-3.945l3.587-4.894v12.635h-4.877zm5.7-12.29a.947.947 0 1 1-.947.947.948.948 0 0 1 .947-.947zM18.9 89.568a.947.947 0 1 1-.947.947.948.948 0 0 1 .947-.947zM12.381 83.9a.947.947 0 1 1-.947.947.948.948 0 0 1 .947-.947zm-6.517 7.435a.947.947 0 1 1-.947.947.948.948 0 0 1 .947-.947zm.692 3.438A2.583 2.583 0 0 0 8.1 90.979l3.284-3.746c.059.025.12.047.181.068v9.462H6.556z" transform="translate(0 -74.738) translate(0 79.038) translate(0 -79.038)"/>
        </g>
    </g>
</svg>
