<svg xmlns="http://www.w3.org/2000/svg" width="36" height="36" viewBox="0 0 36 36">
    <g id="crm-2" transform="translate(-244.529 -328.471)">
        <path id="Прямоугольник_749" fill="rgba(4,4,5,0)" d="M0 0H36V36H0z" transform="translate(244.529 328.471)"/>
        <g id="Сгруппировать_1315">
            <path id="Контур_1388" d="M257.6 334a1.76 1.76 0 0 1 .984.3.6.6 0 1 0 .674-.995 2.961 2.961 0 1 0-1.662 5.412h.068a2.443 2.443 0 0 0 1.882-.879.6.6 0 0 0-.074-.847.6.6 0 0 0-.847.075 1.27 1.27 0 0 1-.971.452h-.054a1.759 1.759 0 0 1 0-3.518z" fill="black"/>
            <path id="Контур_1389" d="M274.134 349.248a7.31 7.31 0 0 0-1.116-.18v-1.617a2.614 2.614 0 0 0-2.6-2.6h-7.288v-2.619h6.689a2.614 2.614 0 0 0 2.6-2.6v-7.762a2.613 2.613 0 0 0-2.6-2.6h-9.8a.6.6 0 1 0 0 1.2h9.8a1.4 1.4 0 0 1 1.4 1.4v7.753a1.4 1.4 0 0 1-1.4 1.4H255.24a1.4 1.4 0 0 1-1.4-1.4v-7.753a1.4 1.4 0 0 1 1.4-1.4h2.775a.6.6 0 0 0 0-1.2h-2.775a2.614 2.614 0 0 0-2.6 2.6v7.753a2.615 2.615 0 0 0 2.6 2.6h6.689v2.613h-7.283a2.616 2.616 0 0 0-2.6 2.6v1.619a7.313 7.313 0 0 0-5.375 11.524 7.436 7.436 0 0 0 5.972 3.09 7.313 7.313 0 0 0 .6-14.6v-1.617a1.4 1.4 0 0 1 1.4-1.4h15.77a1.4 1.4 0 0 1 1.4 1.4v1.618a7.368 7.368 0 0 0-5.686 3.555.6.6 0 1 0 1.033.614 6.112 6.112 0 1 1 9.516 7.5 4.46 4.46 0 0 0-2.07-2.611 2.647 2.647 0 0 0 .461-1.492v-2.5a1.8 1.8 0 0 0-1.8-1.8h-1.7a1.8 1.8 0 0 0-1.8 1.8v2.5a2.652 2.652 0 0 0 .463 1.493 4.5 4.5 0 0 0-.9.677 4.4 4.4 0 0 0-1.167 1.933 6.118 6.118 0 0 1-1.683-5.817.6.6 0 0 0-1.169-.282 7.315 7.315 0 0 0 5.389 8.829 7.385 7.385 0 0 0 1.734.208 7.316 7.316 0 0 0 1.706-14.426zm-15.381 7.211a6.121 6.121 0 0 1-1.852 4.28 4.459 4.459 0 0 0-2.069-2.612 2.656 2.656 0 0 0 .46-1.492v-2.5a1.8 1.8 0 0 0-1.8-1.8h-1.7a1.8 1.8 0 0 0-1.8 1.8v2.5a2.652 2.652 0 0 0 .463 1.493 4.453 4.453 0 0 0-.9.677 4.4 4.4 0 0 0-1.168 1.935 6.111 6.111 0 1 1 10.37-4.381v.1zm-6.112 1.623a1.453 1.453 0 0 1-1.451-1.451v-.531l1.327-.429a1.581 1.581 0 0 1 1.378.188l.194.131v.646a1.452 1.452 0 0 1-1.448 1.446zm-.5-3.562l-.952.313v-.7a.6.6 0 0 1 .6-.6h1.7a.6.6 0 0 1 .6.6v.462a2.732 2.732 0 0 0-1.943-.075zm-1.758 5.147a3.222 3.222 0 0 1 1.035-.679 2.639 2.639 0 0 0 2.431 0 3.234 3.234 0 0 1 1.992 2.571 6.085 6.085 0 0 1-6.41 0 3.223 3.223 0 0 1 .957-1.892zm23.281-3.817l.2.131v.646a1.45 1.45 0 1 1-2.9 0v-.527l1.328-.438a1.572 1.572 0 0 1 1.377.188zm.2-1.252a2.732 2.732 0 0 0-1.948-.077l-.946.312v-.774a.6.6 0 0 1 .594-.523h1.7a.6.6 0 0 1 .6.6zm-2.664 4.392a2.626 2.626 0 0 0 2.429 0 3.235 3.235 0 0 1 1.991 2.567 6.073 6.073 0 0 1-3.2.911h-.192a6.071 6.071 0 0 1-3.021-.908 3.234 3.234 0 0 1 1.994-2.57z" fill="black"/>
            <path id="Контур_1390" d="M266.661 338.23a.706.706 0 0 0 .671.483.715.715 0 0 0 .676-.51l.731-2.568.492 2.554a.6.6 0 1 0 1.181-.226l-.885-4.607a.707.707 0 0 0-.842-.542.721.721 0 0 0-.527.486l-.83 2.929-.874-2.956a.7.7 0 0 0-.356-.409.709.709 0 0 0-1.011.507l-.83 4.6a.6.6 0 0 0 .485.7.587.587 0 0 0 .449-.1.6.6 0 0 0 .249-.387l.459-2.537z" fill="black"/>
            <path id="Контур_1391" d="M263.722 334.764l.018.007v-.154a1.867 1.867 0 0 0-1.862-1.827h-1.292a.6.6 0 0 0-.6.6v4.719a.6.6 0 0 0 1.2 0V336.8l1.5 1.7a.6.6 0 0 0 .414.2.606.606 0 0 0 .434-.148.6.6 0 0 0 .054-.849l-1.189-1.348a1.856 1.856 0 0 0 1.323-1.591zm-1.179-.153a.677.677 0 0 1-.672.635h-.681v-1.254h.656a.663.663 0 0 1 .697.619z" fill="black"/>
        </g>
    </g>
</svg>
