<svg xmlns="http://www.w3.org/2000/svg" id="telephone" width="28" height="28" viewBox="0 0 28 28">
    <g id="Сгруппировать_1237">
        <path id="Контур_1165" d="M25.43 3.336H11.484v-.875A2.464 2.464 0 0 0 9.023 0H5.742a2.464 2.464 0 0 0-2.461 2.461v.875h-.82A2.464 2.464 0 0 0 0 5.8v16.458a2.464 2.464 0 0 0 2.461 2.461h.82v.82a2.461 2.461 0 0 0 4.922 0v-.82H25.43a2.464 2.464 0 0 0 2.461-2.461V5.8a2.464 2.464 0 0 0-2.461-2.464zM4.922 2.461a.821.821 0 0 1 .82-.82h3.281a.821.821 0 0 1 .82.82v14.82a2.461 2.461 0 0 1-4.922 0zm-3.281 19.8V5.8a.821.821 0 0 1 .82-.82h.82v12.3a4.109 4.109 0 0 0 3.282 4.02v1.778h-4.1a.821.821 0 0 1-.822-.82zm4.922 3.281a.82.82 0 0 1-1.641 0v-.82h1.641zm19.687-3.284a.821.821 0 0 1-.82.82H8.2V21.3a4.109 4.109 0 0 0 3.281-4.019V4.977H25.43a.821.821 0 0 1 .82.82zm0 0"/>
        <path id="Контур_1166" d="M250.664 121h-9.844a.82.82 0 0 0-.82.82v3.28a.82.82 0 0 0 .82.82h9.844a.82.82 0 0 0 .82-.82v-3.28a.82.82 0 0 0-.82-.82zm-.82 3.281h-8.2v-1.641h8.2zm0 0" transform="translate(-226.875 -114.383)"/>
        <path id="Контур_1167" d="M241.641 241h-.82a.82.82 0 0 0 0 1.641h.82a.82.82 0 0 0 0-1.641zm0 0" transform="translate(-226.875 -227.82)"/>
        <path id="Контур_1168" d="M324.141 241h-.82a.82.82 0 0 0 0 1.641h.82a.82.82 0 0 0 0-1.641zm0 0" transform="translate(-304.863 -227.82)"/>
        <path id="Контур_1169" d="M406.641 241h-.82a.82.82 0 0 0 0 1.641h.82a.82.82 0 0 0 0-1.641zm0 0" transform="translate(-382.852 -227.82)"/>
        <path id="Контур_1170" d="M241.641 301h-.82a.82.82 0 0 0 0 1.641h.82a.82.82 0 0 0 0-1.641zm0 0" transform="translate(-226.875 -284.539)"/>
        <path id="Контур_1171" d="M324.141 301h-.82a.82.82 0 0 0 0 1.641h.82a.82.82 0 0 0 0-1.641zm0 0" transform="translate(-304.863 -284.539)"/>
        <path id="Контур_1172" d="M406.641 301h-.82a.82.82 0 0 0 0 1.641h.82a.82.82 0 0 0 0-1.641zm0 0" transform="translate(-382.852 -284.539)"/>
        <path id="Контур_1173" d="M241.641 361h-.82a.82.82 0 0 0 0 1.641h.82a.82.82 0 0 0 0-1.641zm0 0" transform="translate(-226.875 -341.258)"/>
        <path id="Контур_1174" d="M324.141 361h-.82a.82.82 0 0 0 0 1.641h.82a.82.82 0 0 0 0-1.641zm0 0" transform="translate(-304.863 -341.258)"/>
        <path id="Контур_1175" d="M406.641 361h-.82a.82.82 0 0 0 0 1.641h.82a.82.82 0 0 0 0-1.641zm0 0" transform="translate(-382.852 -341.258)"/>
    </g>
</svg>
