<svg xmlns="http://www.w3.org/2000/svg" width="18" height="18.001" viewBox="0 0 18 18.001">
    <defs>
        <style>
            .cls-1{fill:#349d3e}
        </style>
    </defs>
    <g id="tick" transform="translate(-691.136 -375.341)">
        <path id="Контур_1456" d="M704.7 381.41a.824.824 0 0 0-1.16-.031l-4.538 4.3-2.131-2.189a.785.785 0 0 0-.587-.226.809.809 0 0 0-.575.255.825.825 0 0 0-.012 1.118l2.694 2.769a.821.821 0 0 0 1.152.022l5.124-4.859a.822.822 0 0 0 .058-1.132z" class="cls-1" transform="translate(-.048 -.064)"/>
        <path id="Контур_1457" d="M700.135 375.341a9 9 0 1 0 9 9 9.011 9.011 0 0 0-9-9zm7.361 9a7.36 7.36 0 1 1-7.361-7.36 7.382 7.382 0 0 1 7.365 7.36z" class="cls-1"/>
    </g>
</svg>
