<svg xmlns="http://www.w3.org/2000/svg" width="18" height="18" viewBox="0 0 18 18">
    <defs>
        <style>
            .cls-2{fill:#1a36f9}
        </style>
    </defs>
    <g id="solution" transform="translate(-95.448)">
        <g id="Сгруппировать_1398" transform="translate(-578.48 -375.375)">
            <path id="Контур_1452" d="M682.921 378.226a5.692 5.692 0 0 0-3.218 10.386v1.583a3.219 3.219 0 1 0 6.439 0v-1.583a5.7 5.7 0 0 0 2.473-4.695 5.7 5.7 0 0 0-5.694-5.691zM684.6 390v.192a1.677 1.677 0 1 1-3.353 0V390zm-.906-3.84a1.946 1.946 0 0 0 1.176-1.788.771.771 0 1 0-1.543 0 .4.4 0 1 1-.809 0 .771.771 0 1 0-1.543 0 1.945 1.945 0 0 0 1.176 1.787v2.3h-.9v-.275a.775.775 0 0 0-.387-.669 4.149 4.149 0 1 1 4.231-.062l-.1.061a.771.771 0 0 0-.388.668v.275h-.906z" class="cls-2" transform="translate(0 -.039)"/>
            <path id="Контур_1453" d="M682.99 377.348a.525.525 0 0 0 .527-.524v-.924a.525.525 0 1 0-1.049 0v.921a.525.525 0 0 0 .522.527z" class="cls-2" transform="translate(-.072)"/>
            <path id="Контур_1454" d="M680.5 377.332a.527.527 0 0 0 .986-.371l-.326-.862a.527.527 0 1 0-.986.371z" class="cls-2" transform="translate(-.04 -.005)"/>
            <path id="Контур_1455" d="M684.8 377.64a.527.527 0 0 0 .679-.308l.326-.862a.525.525 0 0 0-.307-.676.525.525 0 0 0-.677.306l-.325.862a.526.526 0 0 0 .304.678z" class="cls-2" transform="translate(-.099 -.005)"/>
        </g>
    </g>
</svg>
