<svg xmlns="http://www.w3.org/2000/svg" width="16" height="16" viewBox="0 0 16 16">
    <path d="M0 0H16V16H0z"/>
    <path fill="#fff" stroke="#fff" stroke-width="0.3px" d="M5.191 10.183h-.1c-.8 0-1.536-.018-2.253-.062A3.011 3.011 0 0 1 1.1 9.464a2.786 2.786 0 0 1-.935-1.511 6.7 6.7 0 0 1-.154-1.6C.006 5.982 0 5.541 0 5.093S.006 4.2.011 3.831a6.7 6.7 0 0 1 .154-1.6A2.786 2.786 0 0 1 1.1.721 3.011 3.011 0 0 1 2.837.064C3.554.02 4.292 0 5.092 0s1.535.02 2.253.064A3.011 3.011 0 0 1 9.08.721a2.786 2.786 0 0 1 .936 1.511 6.7 6.7 0 0 1 .154 1.6c.005.372.01.812.011 1.26 0 .448-.006.888-.011 1.26a6.694 6.694 0 0 1-.154 1.6 2.786 2.786 0 0 1-.936 1.512 3.011 3.011 0 0 1-1.736.657c-.686.042-1.392.062-2.153.062zm-.1-.8c.785 0 1.506-.018 2.206-.061a2.191 2.191 0 0 0 1.281-.48 2.008 2.008 0 0 0 .668-1.092 6.093 6.093 0 0 0 .129-1.413c.005-.369.01-.807.011-1.25s-.006-.881-.011-1.25a6.094 6.094 0 0 0-.129-1.414 2.008 2.008 0 0 0-.668-1.092A2.192 2.192 0 0 0 7.3.858C6.6.815 5.875.8 5.092.8S3.586.815 2.885.858a2.192 2.192 0 0 0-1.285.479 2.008 2.008 0 0 0-.664 1.092 6.094 6.094 0 0 0-.129 1.413C.8 4.212.8 4.649.8 5.093s.006.88.011 1.249a6.093 6.093 0 0 0 .125 1.414A2.008 2.008 0 0 0 1.6 8.848a2.192 2.192 0 0 0 1.281.479c.705.043 1.426.063 2.209.061zm-.019-1.81a2.486 2.486 0 1 1 2.485-2.481 2.489 2.489 0 0 1-2.486 2.486zm0-4.176a1.69 1.69 0 1 0 1.69 1.69A1.692 1.692 0 0 0 5.071 3.4zm2.763-1.586a.6.6 0 1 0 .6.6.6.6 0 0 0-.6-.6zm0 0" transform="translate(2.909 2.908)"/>
</svg>
