<svg xmlns="http://www.w3.org/2000/svg" width="125" height="45" viewBox="0 0 125 45">
  <defs>
    <style>
      .cls-1 {
        fill: #c7bbbb;
        opacity: 0;
      }
    </style>
  </defs>
  <g id="brutwood_logo" transform="translate(-985 -4125)">
    <rect id="Прямоугольник_1656" data-name="Прямоугольник 1656" class="cls-1" width="125" height="45" transform="translate(985 4125)"/>
    <g id="Сгруппировать_1386" data-name="Сгруппировать 1386" transform="translate(985 4134.546)">
      <path id="Контур_1392" data-name="Контур 1392" d="M72.054,4.655H73.6a2.748,2.748,0,0,1,2.52-2.406v8.517l-2.268.3v1.625l2.268.3v5.241c0,2.52.34,5.273-1.115,7.459h6.741c-1.669-1.959-1.26-4.813-1.26-7.251V13l2.268-.3V11.068l-2.268-.3V2.249A2.7,2.7,0,0,1,83,4.655h1.518L84.9.51H71.67Z" transform="translate(-26.521 -0.189)"/>
      <path id="Контур_1393" data-name="Контур 1393" d="M141.528,24.366c-2.98,2.312-7.818,1.827-9.563-1.764-.712-1.455-.485-3.307-.485-4.888V8.453c0-2.2-.328-4.6,1.222-6.394a6.527,6.527,0,0,1,9.6.088c1.556,1.814,1.228,4.183,1.228,6.4v9.878C143.531,20.693,143.531,22.8,141.528,24.366ZM139.159,3.779c0-1.2-1.052-2.766-2.413-1.978a2.48,2.48,0,0,0-.895,2.274V19.767c1.89-.63,2.936.592,2.583,1.833-1.153-.989-2.784-.328-2.375,1.26.346,1.392,2.463,1.26,2.942-.05.435-1.2.157-2.9.157-4.139Z" transform="translate(-48.64 0)"/>
      <path id="Контур_1394" data-name="Контур 1394" d="M164.4,1.417c-2.98-2.318-7.818-1.833-9.563,1.732-.706,1.455-.485,3.307-.485,4.888v9.286c0,2.2-.321,4.6,1.222,6.394a6.527,6.527,0,0,0,9.6-.088c1.556-1.814,1.228-4.183,1.228-6.394V7.351C166.4,5.083,166.4,2.979,164.4,1.417ZM162.03,21.978c0,1.2-1.052,2.766-2.413,1.978a2.488,2.488,0,0,1-.895-2.274V5.99c2.52.743,2.961-1.424,2.52-2.066a1.281,1.281,0,0,1-2.3-1.039c.208-1.808,2.463-1.26,2.942.057.435,1.2.157,2.892.157,4.133v14.9Z" transform="translate(-57.104 0)"/>
      <path id="Контур_1395" data-name="Контур 1395" d="M189.768,4.322A6.1,6.1,0,0,0,185.05.542a19.025,19.025,0,0,0-2.614-.063H176.47a8.6,8.6,0,0,1,1.115,5.04V19.245c0,2.224.164,4.473-1.115,6.4h5.493c2.577,0,5.077,0,6.867-2.243,1.619-2.041,1.392-4.517,1.392-6.93V11.182C190.222,9.034,190.581,6.363,189.768,4.322ZM185.85,19.34c0,1.436-.674,4.958-2.766,4.555-1.09-.214-1.134-1.468-.309-2.085a2.082,2.082,0,0,1,1.8-.12c-.378-1.26-1.121-2.186-2.614-1.688V2.192c4.756-.076,3.893,5.966,3.893,9.2Z" transform="translate(-65.301 -0.171)"/>
      <path id="Контур_1396" data-name="Контур 1396" d="M13.8,14.1a6.4,6.4,0,0,0-3.251-3.629c2.312-1.31,3.074-4.46,2.161-6.873S9.141.479,6.759.453C4.5.428,2.255.453,0,.453A4.41,4.41,0,0,1,1.178,3.269,13.782,13.782,0,0,1,1.26,5.109v14.13c0,2.211.258,4.567-1.165,6.4a60.8,60.8,0,0,0,8.372-.1,6.3,6.3,0,0,0,5.67-5.67A14.793,14.793,0,0,0,13.8,14.1ZM5.607,2.129c2.709-.05,3.15,2.52,3.043,4.7C8.536,9.254,6.942,9.871,5.607,9.708ZM9.544,20.763a5.166,5.166,0,0,1-1.354,2.608c-.529.472-1.688.882-2.186.107a1.38,1.38,0,0,1,.674-1.808,2.356,2.356,0,0,1,1.556,0c-.359-1.26-1.121-2.211-2.608-1.688V11.371c2.715-.069,4.2,2.658,4.189,5.084a19.384,19.384,0,0,1-.277,4.277Z" transform="translate(0 -0.164)"/>
      <path id="Контур_1397" data-name="Контур 1397" d="M58.59,10.766V17.9c0,2.211.346,5.1-1.606,5.733-2.3.75-3.3-1.581-3.3-4.151V10.766c0-6.93.2-8.857,1.159-10.256h-6.6c1.058,1.4,1.071,3.332,1.071,10.256v8.782c0,2.646.819,4.832,3.5,5.84,2.879,1.084,6.444.542,7.7-2.52.737-1.821.454-4.07.454-5.991V10.766c0-6.93,0-8.857.895-10.256H57.727C58.42,1.909,58.59,3.842,58.59,10.766Z" transform="translate(-17.851 -0.189)"/>
      <path id="Контур_1398" data-name="Контур 1398" d="M38.665,23.548c-1.014-1.965-1.266-4.353-1.732-6.47s-.737-4.561-2.52-6.06A5.5,5.5,0,0,0,38.01,4.6C37.531,1.682,34.9.5,32.208.46S27.5.46,25.14.46a7.255,7.255,0,0,1,1.172,4.655V19.138c0,2.249.176,4.542-1.115,6.5h6.678c-1.373-2-1.2-5.783-1.2-8.523V11.081a7.313,7.313,0,0,0,.832.214c1.783,4.41,1.669,9.323,2.52,12.057.895,2.86,4.019,3.043,6.23,1.619A3.578,3.578,0,0,1,38.665,23.548ZM32.019,9.689a1.046,1.046,0,0,1-.63-1.94c.706-.353,1.184-.113,1.039.6.976-.63.246-2.892-1.783-2.23V2.1a2.9,2.9,0,0,1,3.03,2.847c.151,1.26.29,4.592-1.657,4.756Z" transform="translate(-9.303 -0.164)"/>
      <path id="Контур_1399" data-name="Контур 1399" d="M113.952,1c0,3.093-.857,6.167-1.43,9.2l-1.707,9.059c-.674-3.534-1.2-7.1-1.751-10.659-.2-1.336-.4-2.677-.63-4.019a5.258,5.258,0,0,1,.586-4.038h-6.545a10.565,10.565,0,0,1,1.606,5.159c.176,1.5.693,3.238.372,4.731l-1.94,8.977c-.668-3.521-1.191-7.068-1.739-10.609q-.331-2.079-.63-4.158a5.058,5.058,0,0,1,.63-4.139H94.19c1.707,2.866,1.89,6.381,2.438,9.619l2.041,12.057a12.453,12.453,0,0,1,.265,1.588,4.133,4.133,0,0,1-.693,1.921h6.539a3.276,3.276,0,0,1-.85-1.991,19.427,19.427,0,0,1,.592-2.64l1.184-5.285c.384,1.953.775,3.9,1.159,5.846a13.861,13.861,0,0,1,.435,2.186,4.044,4.044,0,0,1-.7,1.89c2.161,0,4.328.044,6.489-.031a3.074,3.074,0,0,1-.706-2.8l1.014-5.279,2.52-13.009A7.882,7.882,0,0,1,117.555.529h-3.584Z" transform="translate(-34.854 -0.189)"/>
    </g>
  </g>
</svg>
