<svg width="195" height="35" viewBox="0 0 195 35" fill="none" xmlns="http://www.w3.org/2000/svg">
<path d="M132.5 25.4H150.1V21.5H138.5C140.1 15.1 149.9 13.7 149.9 6.6C149.9 2.8 147.3 0 141.8 0C138.4 0 135.4 1 133.4 2L134.6 5.6C136.4 4.7 138.5 3.9 141.1 3.9C143.1 3.9 145 4.8 145 7.1C145 12.3 133.5 12.7 132.5 25.4ZM150.6 19.2H161.9V25.4H166.4V19.2H170.2V15.4H166.4V0H163.1L150.6 16.2V19.2ZM155.7 15.6L162.1 7C162.1 7.7 161.9 9.9 161.9 11.9V15.5H158.9C158 15.5 156.3 15.6 155.7 15.6Z" fill="white"/>
<path d="M4.7 21.6001V13.7001H6.6C8.3 13.7001 9.7 13.9001 10.7 14.5001C11.7 15.1001 12.3 16.1001 12.3 17.7001C12.3 20.4001 10.7 21.6001 6.9 21.6001H4.7ZM0.1 25.4001H6.8C14.3 25.4001 17 22.1001 17 17.5001C17 14.4001 15.7 12.3001 13.4 11.1001C11.6 10.1001 9.3 9.8001 6.5 9.8001H4.7V3.8001H14.8L16 0.100098H0V25.4001H0.1ZM20.1 25.4001H24.5L30.2 17.2001C31.3 15.7001 32.1 14.2001 32.6 13.4001H32.7C32.6 14.5001 32.5 15.9001 32.5 17.3001V25.3001H37V7.3001H32.6L26.9 15.5001C25.9 17.0001 25 18.5001 24.5 19.3001H24.4C24.5 18.2001 24.6 16.8001 24.6 15.4001V7.4001H20.1V25.4001ZM44.7 25.4001H49.3V11.1001H54.7L55.9 7.3001H39.2V11.1001H44.7V25.4001ZM57.5 34.5001H62V25.4001C62.9 25.7001 63.8 25.8001 64.8 25.8001C70.5 25.8001 74.2 21.9001 74.2 16.3001C74.2 10.5001 70.8 6.8001 64.3 6.8001C61.8 6.8001 59.4 7.3001 57.4 7.9001V34.5001H57.5ZM62 21.5001V10.9001C62.7 10.7001 63.3 10.6001 64.1 10.6001C67.4 10.6001 69.5 12.4001 69.5 16.3001C69.5 19.8001 67.8 22.0001 64.4 22.0001C63.5 22.0001 62.8 21.8001 62 21.5001ZM76.9 25.4001H81.3L87 17.2001C88.1 15.7001 88.9 14.2001 89.4 13.4001H89.5C89.4 14.5001 89.3 15.9001 89.3 17.3001V25.3001H93.8V7.3001H89.4L83.7 15.5001C82.7 17.0001 81.8 18.5001 81.3 19.3001H81.2C81.3 18.2001 81.4 16.8001 81.4 15.4001V7.4001H76.9V25.4001ZM97.4 25.4001H102V17.9001H104.7C105.2 17.9001 105.7 18.4001 106.3 19.6001L108.6 25.4001H113.5L110.2 18.5001C109.6 17.3001 109 16.6001 108.1 16.3001V16.2001C109.6 15.3001 109.8 12.7001 110.7 11.4001C111 11.0001 111.4 10.8001 112 10.8001C112.3 10.8001 112.7 10.8001 113 11.0001V7.1001C112.5 6.9001 111.6 6.8001 111.1 6.8001C109.5 6.8001 108.5 7.4001 107.8 8.4001C106.3 10.6001 106.3 14.4001 104.1 14.4001H102V7.3001H97.4V25.4001ZM123.7 25.8001C126.2 25.8001 128.5 25.0001 129.9 24.0001L128.6 20.9001C127.3 21.6001 126.1 22.1001 124.4 22.1001C121.3 22.1001 119.3 20.1001 119.3 16.4001C119.3 13.1001 121.3 10.5001 124.7 10.5001C126.5 10.5001 127.8 11.0001 129.1 11.9001V8.0001C128.1 7.4001 126.5 6.8001 124.2 6.8001C118.8 6.8001 114.6 10.8001 114.6 16.5001C114.6 21.7001 117.8 25.8001 123.7 25.8001Z" fill="white"/>
<path d="M185.1 19.1999C190 19.1999 194 15.1999 194 10.2999C194 5.3999 190 1.3999 185.1 1.3999C180.2 1.3999 176.2 5.3999 176.2 10.2999C176.3 15.1999 180.2 19.1999 185.1 19.1999Z" stroke="white" stroke-width="1.7688"/>
<path d="M190.7 10.2999H185.8V5.3999H184.5V11.5999H190.7V10.2999Z" fill="white"/>
</svg>
