<svg width="225" height="596" viewBox="0 0 225 596" fill="none" xmlns="http://www.w3.org/2000/svg">
<path d="M136.041 593.26C158.982 561.428 111.444 456.08 121.536 421.895C131.627 387.711 142.946 346.777 108.218 343.749C57.5429 339.332 69.4406 410.815 104.922 401.557C119.925 397.642 128.282 384.028 123.421 365.796C119.952 352.788 104.953 353.578 95.0529 358.989C85.1532 364.4 79.1898 385.868 93.2664 392.248C110.399 400.012 127.013 372.822 112.095 367.635C95.5209 361.872 96.4416 378.085 103.716 378.505C111.396 378.949 112.212 331.9 91.7802 289.357C71.3485 246.813 82.7031 221.723 94.3426 202.292C102.763 188.236 71 158.742 69.5572 183.703C68.1143 208.663 99.0783 234.069 108.537 219.431C117.996 204.793 105.495 200.693 96.298 112.791C88.9402 42.4685 86.2434 15.1166 53.3953 2.88299" stroke="url(#paint0_linear_123_67)" stroke-width="4" stroke-linecap="round"/>
<path d="M110.984 26H109.402V10.6367H98.9844V26H97.4023V9.19531H110.984V26ZM122.127 14C123.893 14 125.366 14.5703 126.545 15.7109C127.709 16.8594 128.291 18.3281 128.291 20.1172C128.291 21.9141 127.709 23.3828 126.545 24.5234C125.366 25.6641 123.893 26.2344 122.127 26.2344C120.08 26.2656 118.502 25.5391 117.393 24.0547L117.346 23.9844H117.252V30.8047H115.764V14.2344H117.252V16.2617H117.346L117.393 16.1797C118.534 14.7031 120.112 13.9766 122.127 14ZM122.01 24.8047C123.424 24.8047 124.569 24.3555 125.444 23.457C126.319 22.5586 126.756 21.4453 126.756 20.1172C126.756 18.7891 126.319 17.6758 125.444 16.7773C124.569 15.8867 123.424 15.4414 122.01 15.4414C120.62 15.4414 119.479 15.875 118.588 16.7422C117.698 17.6172 117.252 18.7422 117.252 20.1172C117.252 21.4922 117.698 22.6172 118.588 23.4922C119.463 24.3672 120.604 24.8047 122.01 24.8047ZM133.54 24.5352C132.352 23.3945 131.759 21.9219 131.759 20.1172C131.759 18.3125 132.352 16.8398 133.54 15.6992C134.72 14.5664 136.223 14 138.052 14C139.88 14 141.384 14.5664 142.563 15.6992C143.743 16.832 144.333 18.3047 144.333 20.1172C144.333 21.9297 143.743 23.4023 142.563 24.5352C141.384 25.668 139.88 26.2344 138.052 26.2344C136.223 26.2344 134.72 25.668 133.54 24.5352ZM138.052 24.8047C139.466 24.8047 140.61 24.3555 141.485 23.457C142.36 22.5586 142.798 21.4453 142.798 20.1172C142.798 18.7891 142.36 17.6758 141.485 16.7773C140.61 15.8867 139.466 15.4414 138.052 15.4414C136.645 15.4414 135.501 15.8867 134.618 16.7773C133.735 17.6836 133.294 18.7969 133.294 20.1172C133.294 21.4375 133.735 22.5508 134.618 23.457C135.493 24.3555 136.638 24.8047 138.052 24.8047ZM154.538 12.3477C153.57 12.3477 152.718 12.5156 151.984 12.8516C151.257 13.1875 150.698 13.6445 150.308 14.2227C149.589 15.293 149.23 16.5 149.23 17.8438H149.3C149.331 17.7656 149.382 17.6641 149.452 17.5391C149.507 17.4375 149.675 17.2188 149.956 16.8828C150.245 16.5391 150.554 16.2539 150.882 16.0273C151.257 15.7617 151.753 15.5352 152.37 15.3477C153.003 15.1523 153.706 15.0547 154.48 15.0547C156.167 15.0547 157.554 15.5781 158.64 16.625C159.71 17.6719 160.245 19.0117 160.245 20.6445C160.245 22.293 159.691 23.6367 158.581 24.6758C157.472 25.7148 156.003 26.2344 154.175 26.2344C152.261 26.2344 150.722 25.5703 149.558 24.2422C148.394 22.9141 147.812 21.1797 147.812 19.0391V18.0312C147.812 15.9297 148.37 14.2148 149.487 12.8867C150.597 11.5664 152.198 10.9062 154.292 10.9062C156.402 10.9062 157.456 10.3359 157.456 9.19531H158.991C158.991 10.125 158.652 10.8828 157.972 11.4688C157.284 12.0547 156.14 12.3477 154.538 12.3477ZM157.491 23.6094C158.304 22.8203 158.71 21.832 158.71 20.6445C158.71 19.4648 158.304 18.4766 157.491 17.6797C156.663 16.8906 155.566 16.4961 154.198 16.4961C152.933 16.4961 151.866 16.8945 150.999 17.6914C150.124 18.4961 149.687 19.4805 149.687 20.6445C149.687 21.8398 150.124 22.8281 150.999 23.6094C151.866 24.4062 152.933 24.8047 154.198 24.8047C155.573 24.8047 156.671 24.4062 157.491 23.6094ZM164.298 21.4648L165.4 14.2344H173.826V26H172.338V15.6289H166.642L165.752 21.4648C165.494 23.1758 165.127 24.3984 164.65 25.1328C164.173 25.8672 163.47 26.2344 162.541 26.2344C162.259 26.2344 162.002 26.1953 161.767 26.1172L161.65 26.0703V24.6758C161.83 24.7461 162.088 24.7891 162.423 24.8047C162.986 24.8047 163.396 24.5234 163.654 23.9609C163.912 23.3672 164.127 22.5352 164.298 21.4648ZM190.336 20.1172L190.266 21.0312H179.367C179.367 21.3906 179.562 21.8984 179.953 22.5547C180.18 22.9375 180.453 23.2891 180.773 23.6094C181.117 23.9531 181.586 24.2383 182.18 24.4648C182.773 24.6914 183.414 24.8047 184.102 24.8047C184.602 24.8047 185.082 24.7461 185.543 24.6289C186.004 24.5117 186.383 24.3594 186.68 24.1719C187.258 23.8125 187.637 23.4922 187.816 23.2109L187.969 23.0234H189.762C189.715 23.1406 189.66 23.2539 189.598 23.3633C189.504 23.5352 189.305 23.7969 189 24.1484C188.672 24.5234 188.32 24.8477 187.945 25.1211C187.547 25.4102 187.008 25.6641 186.328 25.8828C185.641 26.1172 184.898 26.2344 184.102 26.2344C182.242 26.2344 180.723 25.668 179.543 24.5352C178.355 23.3945 177.762 21.9219 177.762 20.1172C177.762 18.3125 178.355 16.8398 179.543 15.6992C180.723 14.5664 182.227 14 184.055 14C185.883 14 187.387 14.5664 188.566 15.6992C189.746 16.832 190.336 18.3047 190.336 20.1172ZM179.32 19.6367H188.777C188.777 18.6836 188.363 17.7461 187.535 16.8242C186.707 15.9023 185.547 15.4414 184.055 15.4414C182.562 15.4414 181.402 15.9023 180.574 16.8242C179.738 17.7539 179.32 18.6914 179.32 19.6367ZM205.862 15.8984H205.815L201.83 22.8359H199.815L195.83 15.8984H195.784V26H194.295V14.2344H196.604L200.799 21.6758H200.846L205.053 14.2344H207.35V26H205.862V15.8984ZM211.18 22.7891C211.18 21.6484 211.696 20.7773 212.727 20.1758C213.751 19.582 215.044 19.2852 216.606 19.2852C217.427 19.2852 218.212 19.3867 218.962 19.5898C219.704 19.8008 220.231 20 220.544 20.1875L221.048 20.5039V18.3477C221.048 17.3867 220.684 16.6523 219.958 16.1445C219.223 15.6445 218.313 15.3945 217.227 15.3945C216.165 15.3945 215.243 15.6133 214.462 16.0508C213.68 16.4805 213.29 17.0195 213.29 17.668H211.802C211.841 16.6992 212.321 15.8477 213.243 15.1133C214.173 14.3711 215.485 14 217.18 14C218.712 14 219.985 14.3672 221.001 15.1016C222.024 15.8438 222.536 16.9258 222.536 18.3477V23.3164C222.536 23.8789 222.622 24.2773 222.794 24.5117C222.973 24.7383 223.27 24.8516 223.684 24.8516C223.95 24.8516 224.165 24.8203 224.329 24.7578L224.399 24.6992V26C224.18 26.1094 223.86 26.1641 223.438 26.1641C222.696 26.1641 222.165 25.9961 221.845 25.6602C221.516 25.3398 221.321 25.0859 221.259 24.8984L221.235 24.7578H221.165C221.11 24.8516 220.876 25.0195 220.462 25.2617C220.173 25.4414 219.876 25.5938 219.571 25.7188C218.813 26.0625 217.856 26.2344 216.7 26.2344C215.083 26.2344 213.759 25.9531 212.727 25.3906C211.696 24.8281 211.18 23.9609 211.18 22.7891ZM212.716 22.7891C212.716 24.1641 214.106 24.8516 216.887 24.8516C217.708 24.8516 218.47 24.7305 219.173 24.4883C219.868 24.2461 220.329 24.0469 220.555 23.8906C220.766 23.7344 220.93 23.6055 221.048 23.5039V21.8516C220.993 21.7812 220.841 21.668 220.591 21.5117C220.309 21.3477 219.833 21.168 219.161 20.9727C218.458 20.7695 217.7 20.668 216.887 20.668C215.247 20.668 214.063 20.9531 213.337 21.5234C212.923 21.8516 212.716 22.2734 212.716 22.7891Z" fill="#2562F4"/>
<path d="M6.49609 577.891H1.98438V583H0.402344V566.195H6.49609C8.58984 566.195 10.1953 566.699 11.3125 567.707C12.4375 568.715 13 570.164 13 572.055C13 573.945 12.4375 575.391 11.3125 576.391C10.1953 577.391 8.58984 577.891 6.49609 577.891ZM1.98438 567.637V576.449H6.49609C8.05859 576.449 9.26172 576.074 10.1055 575.324C10.9492 574.574 11.3711 573.484 11.3711 572.055C11.3711 570.625 10.9492 569.531 10.1055 568.773C9.26172 568.016 8.05859 567.637 6.49609 567.637H1.98438ZM27.975 577.117L27.9047 578.031H17.0063C17.0063 578.391 17.2016 578.898 17.5922 579.555C17.8188 579.938 18.0922 580.289 18.4125 580.609C18.7563 580.953 19.225 581.238 19.8188 581.465C20.4125 581.691 21.0531 581.805 21.7406 581.805C22.2406 581.805 22.7211 581.746 23.182 581.629C23.643 581.512 24.0219 581.359 24.3188 581.172C24.8969 580.812 25.2758 580.492 25.4555 580.211L25.6078 580.023H27.4008C27.3539 580.141 27.2992 580.254 27.2367 580.363C27.143 580.535 26.9438 580.797 26.6391 581.148C26.3109 581.523 25.9594 581.848 25.5844 582.121C25.1859 582.41 24.6469 582.664 23.9672 582.883C23.2797 583.117 22.5375 583.234 21.7406 583.234C19.8813 583.234 18.3617 582.668 17.182 581.535C15.9945 580.395 15.4008 578.922 15.4008 577.117C15.4008 575.312 15.9945 573.84 17.182 572.699C18.3617 571.566 19.8656 571 21.6938 571C23.5219 571 25.0258 571.566 26.2055 572.699C27.3852 573.832 27.975 575.305 27.975 577.117ZM16.9594 576.637H26.4164C26.4164 575.684 26.0023 574.746 25.1742 573.824C24.3461 572.902 23.1859 572.441 21.6938 572.441C20.2016 572.441 19.0414 572.902 18.2133 573.824C17.3773 574.754 16.9594 575.691 16.9594 576.637ZM33.4227 581.605H38.8953V571.234H40.3836V581.605H45.8563V571.234H47.3445V583H31.9344V571.234H33.4227V581.605ZM63.8547 577.117L63.7844 578.031H52.8859C52.8859 578.391 53.0812 578.898 53.4719 579.555C53.6984 579.938 53.9719 580.289 54.2922 580.609C54.6359 580.953 55.1047 581.238 55.6984 581.465C56.2922 581.691 56.9328 581.805 57.6203 581.805C58.1203 581.805 58.6008 581.746 59.0617 581.629C59.5227 581.512 59.9016 581.359 60.1984 581.172C60.7766 580.812 61.1555 580.492 61.3352 580.211L61.4875 580.023H63.2805C63.2336 580.141 63.1789 580.254 63.1164 580.363C63.0227 580.535 62.8234 580.797 62.5187 581.148C62.1906 581.523 61.8391 581.848 61.4641 582.121C61.0656 582.41 60.5266 582.664 59.8469 582.883C59.1594 583.117 58.4172 583.234 57.6203 583.234C55.7609 583.234 54.2414 582.668 53.0617 581.535C51.8742 580.395 51.2805 578.922 51.2805 577.117C51.2805 575.312 51.8742 573.84 53.0617 572.699C54.2414 571.566 55.7453 571 57.5734 571C59.4016 571 60.9055 571.566 62.0852 572.699C63.2648 573.832 63.8547 575.305 63.8547 577.117ZM52.8391 576.637H62.2961C62.2961 575.684 61.882 574.746 61.0539 573.824C60.2258 572.902 59.0656 572.441 57.5734 572.441C56.0812 572.441 54.9211 572.902 54.093 573.824C53.257 574.754 52.8391 575.691 52.8391 576.637ZM78.8063 583H77.318V577.621H69.3023V583H67.8141V571.234H69.3023V576.227H77.318V571.234H78.8063V583ZM94.2031 583H92.7383V572.828H92.6914L85.3203 583H83.2344V571.234H84.6992V581.418H84.7461L92.1172 571.234H94.2031V583ZM110.725 577.117L110.655 578.031H99.7562C99.7562 578.391 99.9516 578.898 100.342 579.555C100.569 579.938 100.842 580.289 101.162 580.609C101.506 580.953 101.975 581.238 102.569 581.465C103.162 581.691 103.803 581.805 104.491 581.805C104.991 581.805 105.471 581.746 105.932 581.629C106.393 581.512 106.772 581.359 107.069 581.172C107.647 580.812 108.026 580.492 108.205 580.211L108.358 580.023H110.151C110.104 580.141 110.049 580.254 109.987 580.363C109.893 580.535 109.694 580.797 109.389 581.148C109.061 581.523 108.709 581.848 108.334 582.121C107.936 582.41 107.397 582.664 106.717 582.883C106.03 583.117 105.287 583.234 104.491 583.234C102.631 583.234 101.112 582.668 99.932 581.535C98.7445 580.395 98.1508 578.922 98.1508 577.117C98.1508 575.312 98.7445 573.84 99.932 572.699C101.112 571.566 102.616 571 104.444 571C106.272 571 107.776 571.566 108.955 572.699C110.135 573.832 110.725 575.305 110.725 577.117ZM99.7094 576.637H109.166C109.166 575.684 108.752 574.746 107.924 573.824C107.096 572.902 105.936 572.441 104.444 572.441C102.952 572.441 101.791 572.902 100.963 573.824C100.127 574.754 99.7094 575.691 99.7094 576.637Z" fill="#38B5E8"/>
<defs>
<linearGradient id="paint0_linear_123_67" x1="18.3141" y1="-510.555" x2="-78.3421" y2="-495.332" gradientUnits="userSpaceOnUse">
<stop stop-color="#1A36F9"/>
<stop offset="1" stop-color="#4AFFDF"/>
</linearGradient>
</defs>
</svg>
